# MagicaVoxel @ Ephtracy

# group
o 

# material
mtllib Character_Model.mtl
usemtl palette

# normals
vn -1 0 0
vn 1 0 0
vn 0 0 1
vn 0 0 -1
vn 0 -1 0
vn 0 1 0

# texcoords
vt 0.974609 0.5
vt 0.978516 0.5
vt 0.982422 0.5
vt 0.986328 0.5

# verts
v -2 -0.1 1.4
v -2 -0.1 1.2
v -2 0.1 1.2
v -2 0.1 1
v -2 0.3 1
v -2 0.3 0.8
v -2 0.7 1
v -2 0.7 0.8
v -2 0.9 1.2
v -2 0.9 1
v -2 1.1 1.4
v -2 1.1 1.2
v -1.8 -0.1 1.2
v -1.8 -0.1 1
v -1.8 0.1 1.2
v -1.8 0.1 1
v -1.8 0.1 -0.2
v -1.8 0.2 -0.2
v -1.8 0.2 -0.3
v -1.8 0.3 1
v -1.8 0.3 0.8
v -1.8 0.3 -0.3
v -1.8 0.3 -0.4
v -1.8 0.7 1
v -1.8 0.7 0.8
v -1.8 0.7 -0.3
v -1.8 0.7 -0.4
v -1.8 0.8 -0.2
v -1.8 0.8 -0.3
v -1.8 0.9 1.2
v -1.8 0.9 1
v -1.8 0.9 -0.2
v -1.8 1.1 1.2
v -1.8 1.1 1
v -1.7 0.1 -0.2
v -1.7 0.1 -0.3
v -1.7 0.2 -0.2
v -1.7 0.2 -0.3
v -1.7 0.2 -0.4
v -1.7 0.3 -0.3
v -1.7 0.3 -0.4
v -1.7 0.3 -0.5
v -1.7 0.7 -0.3
v -1.7 0.7 -0.4
v -1.7 0.7 -0.5
v -1.7 0.8 -0.2
v -1.7 0.8 -0.3
v -1.7 0.8 -0.4
v -1.7 0.9 -0.2
v -1.7 0.9 -0.3
v -1.6 0.1 -0.3
v -1.6 0.1 -0.4
v -1.6 0.2 -0.3
v -1.6 0.2 -0.4
v -1.6 0.2 -0.5
v -1.6 0.3 -0.4
v -1.6 0.3 -0.5
v -1.6 0.7 -0.4
v -1.6 0.7 -0.5
v -1.6 0.8 -0.3
v -1.6 0.8 -0.4
v -1.6 0.8 -0.5
v -1.6 0.9 1
v -1.6 0.9 0.8
v -1.6 0.9 0
v -1.6 0.9 -0.2
v -1.6 0.9 -0.3
v -1.6 0.9 -0.4
v -1.6 1.1 1
v -1.6 1.1 0.8
v -1.6 1.3 0
v -1.6 1.3 -0.2
v -1.4 0.3 1.2
v -1.4 0.3 1
v -1.4 0.7 1.2
v -1.4 0.7 1
v -1.2 0.1 1.4
v -1.2 0.1 1.2
v -1.2 0.9 1.4
v -1.2 0.9 1.2
v -1 1.3 -0.6
v -1 1.3 -0.8
v -1 1.5 -0.6
v -1 1.5 -0.8
v -0.9 1.2 -0.6
v -0.9 1.2 -0.8
v -0.9 1.3 -0.5
v -0.9 1.3 -0.6
v -0.9 1.3 -0.8
v -0.9 1.3 -0.9
v -0.9 1.5 -0.5
v -0.9 1.5 -0.6
v -0.9 1.5 -0.8
v -0.9 1.5 -0.9
v -0.9 1.6 -0.6
v -0.9 1.6 -0.8
v -0.8 1.1 -0.5
v -0.8 1.1 -0.9
v -0.8 1.2 -0.4
v -0.8 1.2 -0.5
v -0.8 1.2 -0.6
v -0.8 1.2 -0.8
v -0.8 1.2 -0.9
v -0.8 1.2 -1
v -0.8 1.3 -0.5
v -0.8 1.3 -0.6
v -0.8 1.3 -0.8
v -0.8 1.3 -0.9
v -0.8 1.5 -0.5
v -0.8 1.5 -0.6
v -0.8 1.5 -0.8
v -0.8 1.5 -0.9
v -0.8 1.6 -0.4
v -0.8 1.6 -0.5
v -0.8 1.6 -0.6
v -0.8 1.6 -0.8
v -0.8 1.6 -0.9
v -0.8 1.6 -1
v -0.8 1.7 -0.5
v -0.8 1.7 -0.9
v -0.7 1.1 -0.4
v -0.7 1.1 -0.5
v -0.7 1.1 -0.9
v -0.7 1.1 -1
v -0.7 1.2 -0.4
v -0.7 1.2 -0.5
v -0.7 1.2 -0.9
v -0.7 1.2 -1
v -0.7 1.6 -0.4
v -0.7 1.6 -0.5
v -0.7 1.6 -0.9
v -0.7 1.6 -1
v -0.7 1.7 -0.4
v -0.7 1.7 -0.5
v -0.7 1.7 -0.9
v -0.7 1.7 -1
v -0.6 0.7 0.2
v -0.6 0.7 -1
v -0.6 0.8 0.3
v -0.6 0.8 0.2
v -0.6 0.8 -1
v -0.6 0.8 -1.1
v -0.6 0.9 0.4
v -0.6 0.9 0.3
v -0.6 0.9 -1.1
v -0.6 0.9 -1.2
v -0.6 1 -1.2
v -0.6 1 -1.3
v -0.6 1.1 -0.4
v -0.6 1.1 -1
v -0.6 1.7 -0.4
v -0.6 1.7 -1
v -0.6 1.8 -1.2
v -0.6 1.8 -1.3
v -0.6 1.9 0.4
v -0.6 1.9 0.3
v -0.6 1.9 -1.1
v -0.6 1.9 -1.2
v -0.6 2 0.3
v -0.6 2 0.2
v -0.6 2 -1
v -0.6 2 -1.1
v -0.6 2.1 0.2
v -0.6 2.1 -1
v -0.5 0.7 0.3
v -0.5 0.7 0.2
v -0.5 0.7 -1
v -0.5 0.7 -1.1
v -0.5 0.8 0.4
v -0.5 0.8 0.3
v -0.5 0.8 0.2
v -0.5 0.8 -1
v -0.5 0.8 -1.1
v -0.5 0.8 -1.2
v -0.5 0.9 0.4
v -0.5 0.9 0.3
v -0.5 0.9 -1.1
v -0.5 0.9 -1.2
v -0.5 0.9 -1.3
v -0.5 1 -1.2
v -0.5 1 -1.3
v -0.5 1.1 -1.3
v -0.5 1.1 -1.4
v -0.5 1.7 -1.3
v -0.5 1.7 -1.4
v -0.5 1.8 -1.2
v -0.5 1.8 -1.3
v -0.5 1.9 0.4
v -0.5 1.9 0.3
v -0.5 1.9 -1.1
v -0.5 1.9 -1.2
v -0.5 1.9 -1.3
v -0.5 2 0.4
v -0.5 2 0.3
v -0.5 2 0.2
v -0.5 2 -1
v -0.5 2 -1.1
v -0.5 2 -1.2
v -0.5 2.1 0.3
v -0.5 2.1 0.2
v -0.5 2.1 -1
v -0.5 2.1 -1.1
v -0.4 0.7 0.4
v -0.4 0.7 0.3
v -0.4 0.7 -1.1
v -0.4 0.7 -1.2
v -0.4 0.8 0.4
v -0.4 0.8 0.3
v -0.4 0.8 -1.1
v -0.4 0.8 -1.2
v -0.4 0.8 -1.3
v -0.4 0.9 0.6
v -0.4 0.9 0.4
v -0.4 0.9 -1.2
v -0.4 0.9 -1.3
v -0.4 1 -1.3
v -0.4 1 -1.4
v -0.4 1.1 -1.3
v -0.4 1.1 -1.4
v -0.4 1.7 -1.3
v -0.4 1.7 -1.4
v -0.4 1.8 -1.3
v -0.4 1.8 -1.4
v -0.4 1.9 0.6
v -0.4 1.9 0.4
v -0.4 1.9 -1.2
v -0.4 1.9 -1.3
v -0.4 2 0.4
v -0.4 2 0.3
v -0.4 2 -1.1
v -0.4 2 -1.2
v -0.4 2 -1.3
v -0.4 2.1 0.4
v -0.4 2.1 0.3
v -0.4 2.1 -1.1
v -0.4 2.1 -1.2
v -0.3 0.7 -1.2
v -0.3 0.7 -1.3
v -0.3 0.8 -1.2
v -0.3 0.8 -1.3
v -0.3 0.9 -1.3
v -0.3 0.9 -1.4
v -0.3 1 -1.3
v -0.3 1 -1.4
v -0.3 1.8 -1.3
v -0.3 1.8 -1.4
v -0.3 1.9 -1.3
v -0.3 1.9 -1.4
v -0.3 2 -1.2
v -0.3 2 -1.3
v -0.3 2.1 -1.2
v -0.3 2.1 -1.3
v -0.2 0.8 -1.3
v -0.2 0.8 -1.4
v -0.2 0.9 -1.3
v -0.2 0.9 -1.4
v -0.2 1.9 -1.3
v -0.2 1.9 -1.4
v -0.2 2 -1.3
v -0.2 2 -1.4
v 0.2 1.1 0.6
v 0.2 1.1 0.4
v 0.2 1.7 0.6
v 0.2 1.7 0.4
v 1 -0.1 1.4
v 1 -0.1 1.2
v 1 0.1 1.2
v 1 0.1 1
v 1 0.3 1
v 1 0.3 0.8
v 1 0.7 1
v 1 0.7 0.8
v 1 0.9 1.2
v 1 0.9 1
v 1 1.1 1.4
v 1 1.1 1.2
v 1.2 -0.1 1.2
v 1.2 -0.1 1
v 1.2 0.1 1.2
v 1.2 0.1 1
v 1.2 0.1 -0.2
v 1.2 0.2 -0.2
v 1.2 0.2 -0.3
v 1.2 0.3 1
v 1.2 0.3 0.8
v 1.2 0.3 -0.3
v 1.2 0.3 -0.4
v 1.2 0.7 1
v 1.2 0.7 0.8
v 1.2 0.7 -0.3
v 1.2 0.7 -0.4
v 1.2 0.8 -0.2
v 1.2 0.8 -0.3
v 1.2 0.9 1.2
v 1.2 0.9 1
v 1.2 0.9 -0.2
v 1.2 1.1 1.2
v 1.2 1.1 1
v 1.2 1.1 0
v 1.2 1.1 -0.2
v 1.2 1.3 0
v 1.2 1.3 -0.2
v 1.3 0.1 -0.2
v 1.3 0.1 -0.3
v 1.3 0.2 -0.2
v 1.3 0.2 -0.3
v 1.3 0.2 -0.4
v 1.3 0.3 -0.3
v 1.3 0.3 -0.4
v 1.3 0.3 -0.5
v 1.3 0.7 -0.3
v 1.3 0.7 -0.4
v 1.3 0.7 -0.5
v 1.3 0.8 -0.2
v 1.3 0.8 -0.3
v 1.3 0.8 -0.4
v 1.3 0.9 -0.2
v 1.3 0.9 -0.3
v 1.4 0.1 -0.3
v 1.4 0.1 -0.4
v 1.4 0.2 -0.3
v 1.4 0.2 -0.4
v 1.4 0.2 -0.5
v 1.4 0.3 -0.4
v 1.4 0.3 -0.5
v 1.4 0.7 -0.4
v 1.4 0.7 -0.5
v 1.4 0.8 -0.3
v 1.4 0.8 -0.4
v 1.4 0.8 -0.5
v 1.4 0.9 1
v 1.4 0.9 0.8
v 1.4 0.9 0
v 1.4 0.9 -0.2
v 1.4 0.9 -0.3
v 1.4 0.9 -0.4
v 1.4 1.1 1
v 1.4 1.1 0.8
v 1.4 1.1 0
v 1.4 1.1 -0.2
v 1.6 0.3 1.2
v 1.6 0.3 1
v 1.6 0.7 1.2
v 1.6 0.7 1
v 1.8 0.1 1.4
v 1.8 0.1 1.2
v 1.8 0.9 1.4
v 1.8 0.9 1.2
v -1.8 0.1 1.4
v -1.8 0.1 1.2
v -1.8 0.9 1.4
v -1.8 0.9 1.2
v -1.6 0.3 1.2
v -1.6 0.3 1
v -1.6 0.7 1.2
v -1.6 0.7 1
v -1.4 0.1 -0.3
v -1.4 0.1 -0.4
v -1.4 0.2 -0.3
v -1.4 0.2 -0.4
v -1.4 0.2 -0.5
v -1.4 0.3 -0.4
v -1.4 0.3 -0.5
v -1.4 0.7 -0.4
v -1.4 0.7 -0.5
v -1.4 0.8 -0.3
v -1.4 0.8 -0.4
v -1.4 0.8 -0.5
v -1.4 0.9 1
v -1.4 0.9 0.8
v -1.4 0.9 0
v -1.4 0.9 -0.2
v -1.4 0.9 -0.3
v -1.4 0.9 -0.4
v -1.4 1.1 1
v -1.4 1.1 0.8
v -1.4 1.1 0
v -1.4 1.1 -0.2
v -1.3 0.1 -0.2
v -1.3 0.1 -0.3
v -1.3 0.2 -0.2
v -1.3 0.2 -0.3
v -1.3 0.2 -0.4
v -1.3 0.3 -0.3
v -1.3 0.3 -0.4
v -1.3 0.3 -0.5
v -1.3 0.7 -0.3
v -1.3 0.7 -0.4
v -1.3 0.7 -0.5
v -1.3 0.8 -0.2
v -1.3 0.8 -0.3
v -1.3 0.8 -0.4
v -1.3 0.9 -0.2
v -1.3 0.9 -0.3
v -1.2 -0.1 1.2
v -1.2 -0.1 1
v -1.2 0.1 1.2
v -1.2 0.1 1
v -1.2 0.1 -0.2
v -1.2 0.2 -0.2
v -1.2 0.2 -0.3
v -1.2 0.3 1
v -1.2 0.3 0.8
v -1.2 0.3 -0.3
v -1.2 0.3 -0.4
v -1.2 0.7 1
v -1.2 0.7 0.8
v -1.2 0.7 -0.3
v -1.2 0.7 -0.4
v -1.2 0.8 -0.2
v -1.2 0.8 -0.3
v -1.2 0.9 1.2
v -1.2 0.9 1
v -1.2 0.9 -0.2
v -1.2 1.1 1.2
v -1.2 1.1 1
v -1.2 1.1 0
v -1.2 1.1 -0.2
v -1.2 1.3 0
v -1.2 1.3 -0.2
v -1 -0.1 1.4
v -1 -0.1 1.2
v -1 0.1 1.2
v -1 0.1 1
v -1 0.3 1
v -1 0.3 0.8
v -1 0.7 1
v -1 0.7 0.8
v -1 0.9 1.2
v -1 0.9 1
v -1 1.1 1.4
v -1 1.1 1.2
v -0.2 1.1 0.6
v -0.2 1.1 0.4
v -0.2 1.7 0.6
v -0.2 1.7 0.4
v 0.2 0.8 -1.3
v 0.2 0.8 -1.4
v 0.2 0.9 -1.3
v 0.2 0.9 -1.4
v 0.2 1.9 -1.3
v 0.2 1.9 -1.4
v 0.2 2 -1.3
v 0.2 2 -1.4
v 0.3 0.7 -1.2
v 0.3 0.7 -1.3
v 0.3 0.8 -1.2
v 0.3 0.8 -1.3
v 0.3 0.9 -1.3
v 0.3 0.9 -1.4
v 0.3 1 -1.3
v 0.3 1 -1.4
v 0.3 1.8 -1.3
v 0.3 1.8 -1.4
v 0.3 1.9 -1.3
v 0.3 1.9 -1.4
v 0.3 2 -1.2
v 0.3 2 -1.3
v 0.3 2.1 -1.2
v 0.3 2.1 -1.3
v 0.4 0.7 0.4
v 0.4 0.7 0.3
v 0.4 0.7 -1.1
v 0.4 0.7 -1.2
v 0.4 0.8 0.4
v 0.4 0.8 0.3
v 0.4 0.8 -1.1
v 0.4 0.8 -1.2
v 0.4 0.8 -1.3
v 0.4 0.9 0.6
v 0.4 0.9 0.4
v 0.4 0.9 -1.2
v 0.4 0.9 -1.3
v 0.4 1 -1.3
v 0.4 1 -1.4
v 0.4 1.1 -1.3
v 0.4 1.1 -1.4
v 0.4 1.7 -1.3
v 0.4 1.7 -1.4
v 0.4 1.8 -1.3
v 0.4 1.8 -1.4
v 0.4 1.9 0.6
v 0.4 1.9 0.4
v 0.4 1.9 -1.2
v 0.4 1.9 -1.3
v 0.4 2 0.4
v 0.4 2 0.3
v 0.4 2 -1.1
v 0.4 2 -1.2
v 0.4 2 -1.3
v 0.4 2.1 0.4
v 0.4 2.1 0.3
v 0.4 2.1 -1.1
v 0.4 2.1 -1.2
v 0.5 0.7 0.3
v 0.5 0.7 0.2
v 0.5 0.7 -1
v 0.5 0.7 -1.1
v 0.5 0.8 0.4
v 0.5 0.8 0.3
v 0.5 0.8 0.2
v 0.5 0.8 -1
v 0.5 0.8 -1.1
v 0.5 0.8 -1.2
v 0.5 0.9 0.4
v 0.5 0.9 0.3
v 0.5 0.9 -1.1
v 0.5 0.9 -1.2
v 0.5 0.9 -1.3
v 0.5 1 -1.2
v 0.5 1 -1.3
v 0.5 1.1 -1.3
v 0.5 1.1 -1.4
v 0.5 1.7 -1.3
v 0.5 1.7 -1.4
v 0.5 1.8 -1.2
v 0.5 1.8 -1.3
v 0.5 1.9 0.4
v 0.5 1.9 0.3
v 0.5 1.9 -1.1
v 0.5 1.9 -1.2
v 0.5 1.9 -1.3
v 0.5 2 0.4
v 0.5 2 0.3
v 0.5 2 0.2
v 0.5 2 -1
v 0.5 2 -1.1
v 0.5 2 -1.2
v 0.5 2.1 0.3
v 0.5 2.1 0.2
v 0.5 2.1 -1
v 0.5 2.1 -1.1
v 0.6 0.7 0.2
v 0.6 0.7 -1
v 0.6 0.8 0.3
v 0.6 0.8 0.2
v 0.6 0.8 -1
v 0.6 0.8 -1.1
v 0.6 0.9 0.4
v 0.6 0.9 0.3
v 0.6 0.9 -1.1
v 0.6 0.9 -1.2
v 0.6 1 -1.2
v 0.6 1 -1.3
v 0.6 1.1 -0.4
v 0.6 1.1 -1
v 0.6 1.7 -0.4
v 0.6 1.7 -1
v 0.6 1.8 -1.2
v 0.6 1.8 -1.3
v 0.6 1.9 0.4
v 0.6 1.9 0.3
v 0.6 1.9 -1.1
v 0.6 1.9 -1.2
v 0.6 2 0.3
v 0.6 2 0.2
v 0.6 2 -1
v 0.6 2 -1.1
v 0.6 2.1 0.2
v 0.6 2.1 -1
v 0.7 1.1 -0.4
v 0.7 1.1 -0.5
v 0.7 1.1 -0.9
v 0.7 1.1 -1
v 0.7 1.2 -0.4
v 0.7 1.2 -0.5
v 0.7 1.2 -0.9
v 0.7 1.2 -1
v 0.7 1.6 -0.4
v 0.7 1.6 -0.5
v 0.7 1.6 -0.9
v 0.7 1.6 -1
v 0.7 1.7 -0.4
v 0.7 1.7 -0.5
v 0.7 1.7 -0.9
v 0.7 1.7 -1
v 0.8 1.1 -0.5
v 0.8 1.1 -0.9
v 0.8 1.2 -0.4
v 0.8 1.2 -0.5
v 0.8 1.2 -0.6
v 0.8 1.2 -0.8
v 0.8 1.2 -0.9
v 0.8 1.2 -1
v 0.8 1.3 -0.5
v 0.8 1.3 -0.6
v 0.8 1.3 -0.8
v 0.8 1.3 -0.9
v 0.8 1.5 -0.5
v 0.8 1.5 -0.6
v 0.8 1.5 -0.8
v 0.8 1.5 -0.9
v 0.8 1.6 -0.4
v 0.8 1.6 -0.5
v 0.8 1.6 -0.6
v 0.8 1.6 -0.8
v 0.8 1.6 -0.9
v 0.8 1.6 -1
v 0.8 1.7 -0.5
v 0.8 1.7 -0.9
v 0.9 1.2 -0.6
v 0.9 1.2 -0.8
v 0.9 1.3 -0.5
v 0.9 1.3 -0.6
v 0.9 1.3 -0.8
v 0.9 1.3 -0.9
v 0.9 1.5 -0.5
v 0.9 1.5 -0.6
v 0.9 1.5 -0.8
v 0.9 1.5 -0.9
v 0.9 1.6 -0.6
v 0.9 1.6 -0.8
v 1 1.3 -0.6
v 1 1.3 -0.8
v 1 1.5 -0.6
v 1 1.5 -0.8
v 1.2 0.1 1.4
v 1.2 0.1 1.2
v 1.2 0.9 1.4
v 1.2 0.9 1.2
v 1.4 0.3 1.2
v 1.4 0.3 1
v 1.4 0.7 1.2
v 1.4 0.7 1
v 1.6 0.1 -0.3
v 1.6 0.1 -0.4
v 1.6 0.2 -0.3
v 1.6 0.2 -0.4
v 1.6 0.2 -0.5
v 1.6 0.3 -0.4
v 1.6 0.3 -0.5
v 1.6 0.7 -0.4
v 1.6 0.7 -0.5
v 1.6 0.8 -0.3
v 1.6 0.8 -0.4
v 1.6 0.8 -0.5
v 1.6 0.9 1
v 1.6 0.9 0.8
v 1.6 0.9 0
v 1.6 0.9 -0.2
v 1.6 0.9 -0.3
v 1.6 0.9 -0.4
v 1.6 1.1 1
v 1.6 1.1 0.8
v 1.6 1.3 0
v 1.6 1.3 -0.2
v 1.7 0.1 -0.2
v 1.7 0.1 -0.3
v 1.7 0.2 -0.2
v 1.7 0.2 -0.3
v 1.7 0.2 -0.4
v 1.7 0.3 -0.3
v 1.7 0.3 -0.4
v 1.7 0.3 -0.5
v 1.7 0.7 -0.3
v 1.7 0.7 -0.4
v 1.7 0.7 -0.5
v 1.7 0.8 -0.2
v 1.7 0.8 -0.3
v 1.7 0.8 -0.4
v 1.7 0.9 -0.2
v 1.7 0.9 -0.3
v 1.8 -0.1 1.2
v 1.8 -0.1 1
v 1.8 0.1 1.2
v 1.8 0.1 1
v 1.8 0.1 -0.2
v 1.8 0.2 -0.2
v 1.8 0.2 -0.3
v 1.8 0.3 1
v 1.8 0.3 0.8
v 1.8 0.3 -0.3
v 1.8 0.3 -0.4
v 1.8 0.7 1
v 1.8 0.7 0.8
v 1.8 0.7 -0.3
v 1.8 0.7 -0.4
v 1.8 0.8 -0.2
v 1.8 0.8 -0.3
v 1.8 0.9 1.2
v 1.8 0.9 1
v 1.8 0.9 -0.2
v 1.8 1.1 1.2
v 1.8 1.1 1
v 2 -0.1 1.4
v 2 -0.1 1.2
v 2 0.1 1.2
v 2 0.1 1
v 2 0.3 1
v 2 0.3 0.8
v 2 0.7 1
v 2 0.7 0.8
v 2 0.9 1.2
v 2 0.9 1
v 2 1.1 1.4
v 2 1.1 1.2
v -2 -0.1 1.4
v -2 1.1 1.4
v -1.8 0.1 1.4
v -1.8 0.9 1.4
v -1.2 0.1 1.4
v -1.2 0.9 1.4
v -1 -0.1 1.4
v -1 1.1 1.4
v 1 -0.1 1.4
v 1 1.1 1.4
v 1.2 0.1 1.4
v 1.2 0.9 1.4
v 1.8 0.1 1.4
v 1.8 0.9 1.4
v 2 -0.1 1.4
v 2 1.1 1.4
v -1.8 0.1 1.2
v -1.8 0.9 1.2
v -1.6 0.3 1.2
v -1.6 0.7 1.2
v -1.4 0.3 1.2
v -1.4 0.7 1.2
v -1.2 0.1 1.2
v -1.2 0.9 1.2
v 1.2 0.1 1.2
v 1.2 0.9 1.2
v 1.4 0.3 1.2
v 1.4 0.7 1.2
v 1.6 0.3 1.2
v 1.6 0.7 1.2
v 1.8 0.1 1.2
v 1.8 0.9 1.2
v -1.6 0.3 1
v -1.6 0.7 1
v -1.4 0.3 1
v -1.4 0.7 1
v 1.4 0.3 1
v 1.4 0.7 1
v 1.6 0.3 1
v 1.6 0.7 1
v -0.4 0.9 0.6
v -0.4 1.9 0.6
v -0.2 1.1 0.6
v -0.2 1.7 0.6
v 0.2 1.1 0.6
v 0.2 1.7 0.6
v 0.4 0.9 0.6
v 0.4 1.9 0.6
v -0.6 0.9 0.4
v -0.6 1.9 0.4
v -0.5 0.8 0.4
v -0.5 0.9 0.4
v -0.5 1.9 0.4
v -0.5 2 0.4
v -0.4 0.7 0.4
v -0.4 0.8 0.4
v -0.4 0.9 0.4
v -0.4 1.9 0.4
v -0.4 2 0.4
v -0.4 2.1 0.4
v -0.2 1.1 0.4
v -0.2 1.7 0.4
v 0.2 1.1 0.4
v 0.2 1.7 0.4
v 0.4 0.7 0.4
v 0.4 0.8 0.4
v 0.4 0.9 0.4
v 0.4 1.9 0.4
v 0.4 2 0.4
v 0.4 2.1 0.4
v 0.5 0.8 0.4
v 0.5 0.9 0.4
v 0.5 1.9 0.4
v 0.5 2 0.4
v 0.6 0.9 0.4
v 0.6 1.9 0.4
v -0.6 0.8 0.3
v -0.6 0.9 0.3
v -0.6 1.9 0.3
v -0.6 2 0.3
v -0.5 0.7 0.3
v -0.5 0.8 0.3
v -0.5 0.9 0.3
v -0.5 1.9 0.3
v -0.5 2 0.3
v -0.5 2.1 0.3
v -0.4 0.7 0.3
v -0.4 0.8 0.3
v -0.4 2 0.3
v -0.4 2.1 0.3
v 0.4 0.7 0.3
v 0.4 0.8 0.3
v 0.4 2 0.3
v 0.4 2.1 0.3
v 0.5 0.7 0.3
v 0.5 0.8 0.3
v 0.5 0.9 0.3
v 0.5 1.9 0.3
v 0.5 2 0.3
v 0.5 2.1 0.3
v 0.6 0.8 0.3
v 0.6 0.9 0.3
v 0.6 1.9 0.3
v 0.6 2 0.3
v -0.6 0.7 0.2
v -0.6 0.8 0.2
v -0.6 2 0.2
v -0.6 2.1 0.2
v -0.5 0.7 0.2
v -0.5 0.8 0.2
v -0.5 2 0.2
v -0.5 2.1 0.2
v 0.5 0.7 0.2
v 0.5 0.8 0.2
v 0.5 2 0.2
v 0.5 2.1 0.2
v 0.6 0.7 0.2
v 0.6 0.8 0.2
v 0.6 2 0.2
v 0.6 2.1 0.2
v -1.6 0.9 0
v -1.6 1.3 0
v -1.4 0.9 0
v -1.4 1.1 0
v -1.3 1.1 0
v -1.3 1.3 0
v -1.2 1.1 0
v -1.2 1.3 0
v 1.2 1.1 0
v 1.2 1.3 0
v 1.3 1.1 0
v 1.3 1.3 0
v 1.4 0.9 0
v 1.4 1.1 0
v 1.6 0.9 0
v 1.6 1.3 0
v -0.8 1.2 -0.4
v -0.8 1.6 -0.4
v -0.7 1.1 -0.4
v -0.7 1.2 -0.4
v -0.7 1.6 -0.4
v -0.7 1.7 -0.4
v -0.6 1.1 -0.4
v -0.6 1.7 -0.4
v 0.6 1.1 -0.4
v 0.6 1.7 -0.4
v 0.7 1.1 -0.4
v 0.7 1.2 -0.4
v 0.7 1.6 -0.4
v 0.7 1.7 -0.4
v 0.8 1.2 -0.4
v 0.8 1.6 -0.4
v -0.9 1.3 -0.5
v -0.9 1.5 -0.5
v -0.8 1.1 -0.5
v -0.8 1.2 -0.5
v -0.8 1.3 -0.5
v -0.8 1.5 -0.5
v -0.8 1.6 -0.5
v -0.8 1.7 -0.5
v -0.7 1.1 -0.5
v -0.7 1.2 -0.5
v -0.7 1.6 -0.5
v -0.7 1.7 -0.5
v 0.7 1.1 -0.5
v 0.7 1.2 -0.5
v 0.7 1.6 -0.5
v 0.7 1.7 -0.5
v 0.8 1.1 -0.5
v 0.8 1.2 -0.5
v 0.8 1.3 -0.5
v 0.8 1.5 -0.5
v 0.8 1.6 -0.5
v 0.8 1.7 -0.5
v 0.9 1.3 -0.5
v 0.9 1.5 -0.5
v -1 1.3 -0.6
v -1 1.5 -0.6
v -0.9 1.2 -0.6
v -0.9 1.3 -0.6
v -0.9 1.5 -0.6
v -0.9 1.6 -0.6
v -0.8 1.2 -0.6
v -0.8 1.3 -0.6
v -0.8 1.5 -0.6
v -0.8 1.6 -0.6
v 0.8 1.2 -0.6
v 0.8 1.3 -0.6
v 0.8 1.5 -0.6
v 0.8 1.6 -0.6
v 0.9 1.2 -0.6
v 0.9 1.3 -0.6
v 0.9 1.5 -0.6
v 0.9 1.6 -0.6
v 1 1.3 -0.6
v 1 1.5 -0.6
v -2 -0.1 1.2
v -2 0.1 1.2
v -2 0.9 1.2
v -2 1.1 1.2
v -1.8 -0.1 1.2
v -1.8 0.1 1.2
v -1.8 0.9 1.2
v -1.8 1.1 1.2
v -1.2 -0.1 1.2
v -1.2 0.1 1.2
v -1.2 0.9 1.2
v -1.2 1.1 1.2
v -1 -0.1 1.2
v -1 0.1 1.2
v -1 0.9 1.2
v -1 1.1 1.2
v 1 -0.1 1.2
v 1 0.1 1.2
v 1 0.9 1.2
v 1 1.1 1.2
v 1.2 -0.1 1.2
v 1.2 0.1 1.2
v 1.2 0.9 1.2
v 1.2 1.1 1.2
v 1.8 -0.1 1.2
v 1.8 0.1 1.2
v 1.8 0.9 1.2
v 1.8 1.1 1.2
v 2 -0.1 1.2
v 2 0.1 1.2
v 2 0.9 1.2
v 2 1.1 1.2
v -2 0.1 1
v -2 0.3 1
v -2 0.7 1
v -2 0.9 1
v -1.8 -0.1 1
v -1.8 0.1 1
v -1.8 0.3 1
v -1.8 0.7 1
v -1.8 0.9 1
v -1.8 1.1 1
v -1.6 0.9 1
v -1.6 1.1 1
v -1.4 0.9 1
v -1.4 1.1 1
v -1.2 -0.1 1
v -1.2 0.1 1
v -1.2 0.3 1
v -1.2 0.7 1
v -1.2 0.9 1
v -1.2 1.1 1
v -1 0.1 1
v -1 0.3 1
v -1 0.7 1
v -1 0.9 1
v 1 0.1 1
v 1 0.3 1
v 1 0.7 1
v 1 0.9 1
v 1.2 -0.1 1
v 1.2 0.1 1
v 1.2 0.3 1
v 1.2 0.7 1
v 1.2 0.9 1
v 1.2 1.1 1
v 1.4 0.9 1
v 1.4 1.1 1
v 1.6 0.9 1
v 1.6 1.1 1
v 1.8 -0.1 1
v 1.8 0.1 1
v 1.8 0.3 1
v 1.8 0.7 1
v 1.8 0.9 1
v 1.8 1.1 1
v 2 0.1 1
v 2 0.3 1
v 2 0.7 1
v 2 0.9 1
v -2 0.3 0.8
v -2 0.7 0.8
v -1.8 0.3 0.8
v -1.8 0.7 0.8
v -1.6 0.9 0.8
v -1.6 1.1 0.8
v -1.4 0.9 0.8
v -1.4 1.1 0.8
v -1.2 0.3 0.8
v -1.2 0.7 0.8
v -1 0.3 0.8
v -1 0.7 0.8
v 1 0.3 0.8
v 1 0.7 0.8
v 1.2 0.3 0.8
v 1.2 0.7 0.8
v 1.4 0.9 0.8
v 1.4 1.1 0.8
v 1.6 0.9 0.8
v 1.6 1.1 0.8
v 1.8 0.3 0.8
v 1.8 0.7 0.8
v 2 0.3 0.8
v 2 0.7 0.8
v -1.8 0.1 -0.2
v -1.8 0.2 -0.2
v -1.8 0.8 -0.2
v -1.8 0.9 -0.2
v -1.7 0.1 -0.2
v -1.7 0.2 -0.2
v -1.7 0.8 -0.2
v -1.7 0.9 -0.2
v -1.6 0.9 -0.2
v -1.6 1.3 -0.2
v -1.4 0.9 -0.2
v -1.4 1.1 -0.2
v -1.3 0.1 -0.2
v -1.3 0.2 -0.2
v -1.3 0.8 -0.2
v -1.3 0.9 -0.2
v -1.3 1.1 -0.2
v -1.3 1.3 -0.2
v -1.2 0.1 -0.2
v -1.2 0.2 -0.2
v -1.2 0.8 -0.2
v -1.2 0.9 -0.2
v -1.2 1.1 -0.2
v -1.2 1.3 -0.2
v 1.2 0.1 -0.2
v 1.2 0.2 -0.2
v 1.2 0.8 -0.2
v 1.2 0.9 -0.2
v 1.2 1.1 -0.2
v 1.2 1.3 -0.2
v 1.3 0.1 -0.2
v 1.3 0.2 -0.2
v 1.3 0.8 -0.2
v 1.3 0.9 -0.2
v 1.3 1.1 -0.2
v 1.3 1.3 -0.2
v 1.4 0.9 -0.2
v 1.4 1.1 -0.2
v 1.6 0.9 -0.2
v 1.6 1.3 -0.2
v 1.7 0.1 -0.2
v 1.7 0.2 -0.2
v 1.7 0.8 -0.2
v 1.7 0.9 -0.2
v 1.8 0.1 -0.2
v 1.8 0.2 -0.2
v 1.8 0.8 -0.2
v 1.8 0.9 -0.2
v -1.8 0.2 -0.3
v -1.8 0.3 -0.3
v -1.8 0.7 -0.3
v -1.8 0.8 -0.3
v -1.7 0.1 -0.3
v -1.7 0.2 -0.3
v -1.7 0.3 -0.3
v -1.7 0.7 -0.3
v -1.7 0.8 -0.3
v -1.7 0.9 -0.3
v -1.6 0.1 -0.3
v -1.6 0.2 -0.3
v -1.6 0.8 -0.3
v -1.6 0.9 -0.3
v -1.4 0.1 -0.3
v -1.4 0.2 -0.3
v -1.4 0.8 -0.3
v -1.4 0.9 -0.3
v -1.3 0.1 -0.3
v -1.3 0.2 -0.3
v -1.3 0.3 -0.3
v -1.3 0.7 -0.3
v -1.3 0.8 -0.3
v -1.3 0.9 -0.3
v -1.2 0.2 -0.3
v -1.2 0.3 -0.3
v -1.2 0.7 -0.3
v -1.2 0.8 -0.3
v 1.2 0.2 -0.3
v 1.2 0.3 -0.3
v 1.2 0.7 -0.3
v 1.2 0.8 -0.3
v 1.3 0.1 -0.3
v 1.3 0.2 -0.3
v 1.3 0.3 -0.3
v 1.3 0.7 -0.3
v 1.3 0.8 -0.3
v 1.3 0.9 -0.3
v 1.4 0.1 -0.3
v 1.4 0.2 -0.3
v 1.4 0.8 -0.3
v 1.4 0.9 -0.3
v 1.6 0.1 -0.3
v 1.6 0.2 -0.3
v 1.6 0.8 -0.3
v 1.6 0.9 -0.3
v 1.7 0.1 -0.3
v 1.7 0.2 -0.3
v 1.7 0.3 -0.3
v 1.7 0.7 -0.3
v 1.7 0.8 -0.3
v 1.7 0.9 -0.3
v 1.8 0.2 -0.3
v 1.8 0.3 -0.3
v 1.8 0.7 -0.3
v 1.8 0.8 -0.3
v -1.8 0.3 -0.4
v -1.8 0.7 -0.4
v -1.7 0.2 -0.4
v -1.7 0.3 -0.4
v -1.7 0.7 -0.4
v -1.7 0.8 -0.4
v -1.6 0.1 -0.4
v -1.6 0.2 -0.4
v -1.6 0.3 -0.4
v -1.6 0.7 -0.4
v -1.6 0.8 -0.4
v -1.6 0.9 -0.4
v -1.4 0.1 -0.4
v -1.4 0.2 -0.4
v -1.4 0.3 -0.4
v -1.4 0.7 -0.4
v -1.4 0.8 -0.4
v -1.4 0.9 -0.4
v -1.3 0.2 -0.4
v -1.3 0.3 -0.4
v -1.3 0.7 -0.4
v -1.3 0.8 -0.4
v -1.2 0.3 -0.4
v -1.2 0.7 -0.4
v 1.2 0.3 -0.4
v 1.2 0.7 -0.4
v 1.3 0.2 -0.4
v 1.3 0.3 -0.4
v 1.3 0.7 -0.4
v 1.3 0.8 -0.4
v 1.4 0.1 -0.4
v 1.4 0.2 -0.4
v 1.4 0.3 -0.4
v 1.4 0.7 -0.4
v 1.4 0.8 -0.4
v 1.4 0.9 -0.4
v 1.6 0.1 -0.4
v 1.6 0.2 -0.4
v 1.6 0.3 -0.4
v 1.6 0.7 -0.4
v 1.6 0.8 -0.4
v 1.6 0.9 -0.4
v 1.7 0.2 -0.4
v 1.7 0.3 -0.4
v 1.7 0.7 -0.4
v 1.7 0.8 -0.4
v 1.8 0.3 -0.4
v 1.8 0.7 -0.4
v -1.7 0.3 -0.5
v -1.7 0.7 -0.5
v -1.6 0.2 -0.5
v -1.6 0.3 -0.5
v -1.6 0.7 -0.5
v -1.6 0.8 -0.5
v -1.4 0.2 -0.5
v -1.4 0.3 -0.5
v -1.4 0.7 -0.5
v -1.4 0.8 -0.5
v -1.3 0.3 -0.5
v -1.3 0.7 -0.5
v 1.3 0.3 -0.5
v 1.3 0.7 -0.5
v 1.4 0.2 -0.5
v 1.4 0.3 -0.5
v 1.4 0.7 -0.5
v 1.4 0.8 -0.5
v 1.6 0.2 -0.5
v 1.6 0.3 -0.5
v 1.6 0.7 -0.5
v 1.6 0.8 -0.5
v 1.7 0.3 -0.5
v 1.7 0.7 -0.5
v -1 1.3 -0.8
v -1 1.5 -0.8
v -0.9 1.2 -0.8
v -0.9 1.3 -0.8
v -0.9 1.5 -0.8
v -0.9 1.6 -0.8
v -0.8 1.2 -0.8
v -0.8 1.3 -0.8
v -0.8 1.5 -0.8
v -0.8 1.6 -0.8
v 0.8 1.2 -0.8
v 0.8 1.3 -0.8
v 0.8 1.5 -0.8
v 0.8 1.6 -0.8
v 0.9 1.2 -0.8
v 0.9 1.3 -0.8
v 0.9 1.5 -0.8
v 0.9 1.6 -0.8
v 1 1.3 -0.8
v 1 1.5 -0.8
v -0.9 1.3 -0.9
v -0.9 1.5 -0.9
v -0.8 1.1 -0.9
v -0.8 1.2 -0.9
v -0.8 1.3 -0.9
v -0.8 1.5 -0.9
v -0.8 1.6 -0.9
v -0.8 1.7 -0.9
v -0.7 1.1 -0.9
v -0.7 1.2 -0.9
v -0.7 1.6 -0.9
v -0.7 1.7 -0.9
v 0.7 1.1 -0.9
v 0.7 1.2 -0.9
v 0.7 1.6 -0.9
v 0.7 1.7 -0.9
v 0.8 1.1 -0.9
v 0.8 1.2 -0.9
v 0.8 1.3 -0.9
v 0.8 1.5 -0.9
v 0.8 1.6 -0.9
v 0.8 1.7 -0.9
v 0.9 1.3 -0.9
v 0.9 1.5 -0.9
v -0.8 1.2 -1
v -0.8 1.6 -1
v -0.7 1.1 -1
v -0.7 1.2 -1
v -0.7 1.6 -1
v -0.7 1.7 -1
v -0.6 0.7 -1
v -0.6 0.8 -1
v -0.6 1.1 -1
v -0.6 1.7 -1
v -0.6 2 -1
v -0.6 2.1 -1
v -0.5 0.7 -1
v -0.5 0.8 -1
v -0.5 2 -1
v -0.5 2.1 -1
v 0.5 0.7 -1
v 0.5 0.8 -1
v 0.5 2 -1
v 0.5 2.1 -1
v 0.6 0.7 -1
v 0.6 0.8 -1
v 0.6 1.1 -1
v 0.6 1.7 -1
v 0.6 2 -1
v 0.6 2.1 -1
v 0.7 1.1 -1
v 0.7 1.2 -1
v 0.7 1.6 -1
v 0.7 1.7 -1
v 0.8 1.2 -1
v 0.8 1.6 -1
v -0.6 0.8 -1.1
v -0.6 0.9 -1.1
v -0.6 1.9 -1.1
v -0.6 2 -1.1
v -0.5 0.7 -1.1
v -0.5 0.8 -1.1
v -0.5 0.9 -1.1
v -0.5 1.9 -1.1
v -0.5 2 -1.1
v -0.5 2.1 -1.1
v -0.4 0.7 -1.1
v -0.4 0.8 -1.1
v -0.4 2 -1.1
v -0.4 2.1 -1.1
v 0.4 0.7 -1.1
v 0.4 0.8 -1.1
v 0.4 2 -1.1
v 0.4 2.1 -1.1
v 0.5 0.7 -1.1
v 0.5 0.8 -1.1
v 0.5 0.9 -1.1
v 0.5 1.9 -1.1
v 0.5 2 -1.1
v 0.5 2.1 -1.1
v 0.6 0.8 -1.1
v 0.6 0.9 -1.1
v 0.6 1.9 -1.1
v 0.6 2 -1.1
v -0.6 0.9 -1.2
v -0.6 1 -1.2
v -0.6 1.8 -1.2
v -0.6 1.9 -1.2
v -0.5 0.8 -1.2
v -0.5 0.9 -1.2
v -0.5 1 -1.2
v -0.5 1.8 -1.2
v -0.5 1.9 -1.2
v -0.5 2 -1.2
v -0.4 0.7 -1.2
v -0.4 0.8 -1.2
v -0.4 0.9 -1.2
v -0.4 1.9 -1.2
v -0.4 2 -1.2
v -0.4 2.1 -1.2
v -0.3 0.7 -1.2
v -0.3 0.8 -1.2
v -0.3 2 -1.2
v -0.3 2.1 -1.2
v 0.3 0.7 -1.2
v 0.3 0.8 -1.2
v 0.3 2 -1.2
v 0.3 2.1 -1.2
v 0.4 0.7 -1.2
v 0.4 0.8 -1.2
v 0.4 0.9 -1.2
v 0.4 1.9 -1.2
v 0.4 2 -1.2
v 0.4 2.1 -1.2
v 0.5 0.8 -1.2
v 0.5 0.9 -1.2
v 0.5 1 -1.2
v 0.5 1.8 -1.2
v 0.5 1.9 -1.2
v 0.5 2 -1.2
v 0.6 0.9 -1.2
v 0.6 1 -1.2
v 0.6 1.8 -1.2
v 0.6 1.9 -1.2
v -0.6 1 -1.3
v -0.6 1.8 -1.3
v -0.5 0.9 -1.3
v -0.5 1 -1.3
v -0.5 1.1 -1.3
v -0.5 1.7 -1.3
v -0.5 1.8 -1.3
v -0.5 1.9 -1.3
v -0.4 0.8 -1.3
v -0.4 0.9 -1.3
v -0.4 1 -1.3
v -0.4 1.1 -1.3
v -0.4 1.7 -1.3
v -0.4 1.8 -1.3
v -0.4 1.9 -1.3
v -0.4 2 -1.3
v -0.3 0.7 -1.3
v -0.3 0.8 -1.3
v -0.3 0.9 -1.3
v -0.3 1 -1.3
v -0.3 1.8 -1.3
v -0.3 1.9 -1.3
v -0.3 2 -1.3
v -0.3 2.1 -1.3
v -0.2 0.8 -1.3
v -0.2 0.9 -1.3
v -0.2 1.9 -1.3
v -0.2 2 -1.3
v 0.2 0.8 -1.3
v 0.2 0.9 -1.3
v 0.2 1.9 -1.3
v 0.2 2 -1.3
v 0.3 0.7 -1.3
v 0.3 0.8 -1.3
v 0.3 0.9 -1.3
v 0.3 1 -1.3
v 0.3 1.8 -1.3
v 0.3 1.9 -1.3
v 0.3 2 -1.3
v 0.3 2.1 -1.3
v 0.4 0.8 -1.3
v 0.4 0.9 -1.3
v 0.4 1 -1.3
v 0.4 1.1 -1.3
v 0.4 1.7 -1.3
v 0.4 1.8 -1.3
v 0.4 1.9 -1.3
v 0.4 2 -1.3
v 0.5 0.9 -1.3
v 0.5 1 -1.3
v 0.5 1.1 -1.3
v 0.5 1.7 -1.3
v 0.5 1.8 -1.3
v 0.5 1.9 -1.3
v 0.6 1 -1.3
v 0.6 1.8 -1.3
v -0.5 1.1 -1.4
v -0.5 1.7 -1.4
v -0.4 1 -1.4
v -0.4 1.1 -1.4
v -0.4 1.2 -1.4
v -0.4 1.6 -1.4
v -0.4 1.7 -1.4
v -0.4 1.8 -1.4
v -0.3 0.9 -1.4
v -0.3 1 -1.4
v -0.3 1.1 -1.4
v -0.3 1.2 -1.4
v -0.3 1.6 -1.4
v -0.3 1.7 -1.4
v -0.3 1.8 -1.4
v -0.3 1.9 -1.4
v -0.2 0.8 -1.4
v -0.2 0.9 -1.4
v -0.2 1 -1.4
v -0.2 1.1 -1.4
v -0.2 1.7 -1.4
v -0.2 1.8 -1.4
v -0.2 1.9 -1.4
v -0.2 2 -1.4
v -0.0999999 0.9 -1.4
v -0.0999999 1 -1.4
v -0.0999999 1.8 -1.4
v -0.0999999 1.9 -1.4
v 0.1 0.9 -1.4
v 0.1 1 -1.4
v 0.1 1.8 -1.4
v 0.1 1.9 -1.4
v 0.2 0.8 -1.4
v 0.2 0.9 -1.4
v 0.2 1 -1.4
v 0.2 1.1 -1.4
v 0.2 1.7 -1.4
v 0.2 1.8 -1.4
v 0.2 1.9 -1.4
v 0.2 2 -1.4
v 0.3 0.9 -1.4
v 0.3 1 -1.4
v 0.3 1.1 -1.4
v 0.3 1.2 -1.4
v 0.3 1.6 -1.4
v 0.3 1.7 -1.4
v 0.3 1.8 -1.4
v 0.3 1.9 -1.4
v 0.4 1 -1.4
v 0.4 1.1 -1.4
v 0.4 1.2 -1.4
v 0.4 1.6 -1.4
v 0.4 1.7 -1.4
v 0.4 1.8 -1.4
v 0.5 1.1 -1.4
v 0.5 1.7 -1.4
v -2 -0.1 1.4
v -1 -0.1 1.4
v 1 -0.1 1.4
v 2 -0.1 1.4
v -2 -0.1 1.2
v -1.8 -0.1 1.2
v -1.2 -0.1 1.2
v -1 -0.1 1.2
v 1 -0.1 1.2
v 1.2 -0.1 1.2
v 1.8 -0.1 1.2
v 2 -0.1 1.2
v -1.8 -0.1 1
v -1.2 -0.1 1
v 1.2 -0.1 1
v 1.8 -0.1 1
v -2 0.1 1.2
v -1.8 0.1 1.2
v -1.2 0.1 1.2
v -1 0.1 1.2
v 1 0.1 1.2
v 1.2 0.1 1.2
v 1.8 0.1 1.2
v 2 0.1 1.2
v -2 0.1 1
v -1.8 0.1 1
v -1.2 0.1 1
v -1 0.1 1
v 1 0.1 1
v 1.2 0.1 1
v 1.8 0.1 1
v 2 0.1 1
v -1.8 0.1 -0.2
v -1.7 0.1 -0.2
v -1.3 0.1 -0.2
v -1.2 0.1 -0.2
v 1.2 0.1 -0.2
v 1.3 0.1 -0.2
v 1.7 0.1 -0.2
v 1.8 0.1 -0.2
v -1.7 0.1 -0.3
v -1.6 0.1 -0.3
v -1.4 0.1 -0.3
v -1.3 0.1 -0.3
v 1.3 0.1 -0.3
v 1.4 0.1 -0.3
v 1.6 0.1 -0.3
v 1.7 0.1 -0.3
v -1.6 0.1 -0.4
v -1.4 0.1 -0.4
v 1.4 0.1 -0.4
v 1.6 0.1 -0.4
v -1.8 0.2 -0.2
v -1.7 0.2 -0.2
v -1.3 0.2 -0.2
v -1.2 0.2 -0.2
v 1.2 0.2 -0.2
v 1.3 0.2 -0.2
v 1.7 0.2 -0.2
v 1.8 0.2 -0.2
v -1.8 0.2 -0.3
v -1.7 0.2 -0.3
v -1.6 0.2 -0.3
v -1.4 0.2 -0.3
v -1.3 0.2 -0.3
v -1.2 0.2 -0.3
v 1.2 0.2 -0.3
v 1.3 0.2 -0.3
v 1.4 0.2 -0.3
v 1.6 0.2 -0.3
v 1.7 0.2 -0.3
v 1.8 0.2 -0.3
v -1.7 0.2 -0.4
v -1.6 0.2 -0.4
v -1.4 0.2 -0.4
v -1.3 0.2 -0.4
v 1.3 0.2 -0.4
v 1.4 0.2 -0.4
v 1.6 0.2 -0.4
v 1.7 0.2 -0.4
v -1.6 0.2 -0.5
v -1.4 0.2 -0.5
v 1.4 0.2 -0.5
v 1.6 0.2 -0.5
v -2 0.3 1
v -1.8 0.3 1
v -1.2 0.3 1
v -1 0.3 1
v 1 0.3 1
v 1.2 0.3 1
v 1.8 0.3 1
v 2 0.3 1
v -2 0.3 0.8
v -1.8 0.3 0.8
v -1.2 0.3 0.8
v -1 0.3 0.8
v 1 0.3 0.8
v 1.2 0.3 0.8
v 1.8 0.3 0.8
v 2 0.3 0.8
v -1.8 0.3 -0.3
v -1.7 0.3 -0.3
v -1.3 0.3 -0.3
v -1.2 0.3 -0.3
v 1.2 0.3 -0.3
v 1.3 0.3 -0.3
v 1.7 0.3 -0.3
v 1.8 0.3 -0.3
v -1.8 0.3 -0.4
v -1.7 0.3 -0.4
v -1.6 0.3 -0.4
v -1.4 0.3 -0.4
v -1.3 0.3 -0.4
v -1.2 0.3 -0.4
v 1.2 0.3 -0.4
v 1.3 0.3 -0.4
v 1.4 0.3 -0.4
v 1.6 0.3 -0.4
v 1.7 0.3 -0.4
v 1.8 0.3 -0.4
v -1.7 0.3 -0.5
v -1.6 0.3 -0.5
v -1.4 0.3 -0.5
v -1.3 0.3 -0.5
v 1.3 0.3 -0.5
v 1.4 0.3 -0.5
v 1.6 0.3 -0.5
v 1.7 0.3 -0.5
v -1.6 0.7 1.2
v -1.4 0.7 1.2
v 1.4 0.7 1.2
v 1.6 0.7 1.2
v -1.6 0.7 1
v -1.4 0.7 1
v 1.4 0.7 1
v 1.6 0.7 1
v -0.4 0.7 0.4
v 0.4 0.7 0.4
v -0.5 0.7 0.3
v -0.4 0.7 0.3
v 0.4 0.7 0.3
v 0.5 0.7 0.3
v -0.6 0.7 0.2
v -0.5 0.7 0.2
v 0.5 0.7 0.2
v 0.6 0.7 0.2
v -0.6 0.7 -1
v -0.5 0.7 -1
v 0.5 0.7 -1
v 0.6 0.7 -1
v -0.5 0.7 -1.1
v -0.4 0.7 -1.1
v 0.4 0.7 -1.1
v 0.5 0.7 -1.1
v -0.4 0.7 -1.2
v -0.3 0.7 -1.2
v 0.3 0.7 -1.2
v 0.4 0.7 -1.2
v -0.3 0.7 -1.3
v 0.3 0.7 -1.3
v -0.5 0.8 0.4
v -0.4 0.8 0.4
v 0.4 0.8 0.4
v 0.5 0.8 0.4
v -0.6 0.8 0.3
v -0.5 0.8 0.3
v -0.4 0.8 0.3
v 0.4 0.8 0.3
v 0.5 0.8 0.3
v 0.6 0.8 0.3
v -0.6 0.8 0.2
v -0.5 0.8 0.2
v 0.5 0.8 0.2
v 0.6 0.8 0.2
v -0.6 0.8 -1
v -0.5 0.8 -1
v 0.5 0.8 -1
v 0.6 0.8 -1
v -0.6 0.8 -1.1
v -0.5 0.8 -1.1
v -0.4 0.8 -1.1
v 0.4 0.8 -1.1
v 0.5 0.8 -1.1
v 0.6 0.8 -1.1
v -0.5 0.8 -1.2
v -0.4 0.8 -1.2
v -0.3 0.8 -1.2
v 0.3 0.8 -1.2
v 0.4 0.8 -1.2
v 0.5 0.8 -1.2
v -0.4 0.8 -1.3
v -0.3 0.8 -1.3
v -0.2 0.8 -1.3
v 0.2 0.8 -1.3
v 0.3 0.8 -1.3
v 0.4 0.8 -1.3
v -0.2 0.8 -1.4
v 0.2 0.8 -1.4
v -1.8 0.9 1.4
v -1.2 0.9 1.4
v 1.2 0.9 1.4
v 1.8 0.9 1.4
v -1.8 0.9 1.2
v -1.2 0.9 1.2
v 1.2 0.9 1.2
v 1.8 0.9 1.2
v -0.4 0.9 0.6
v 0.4 0.9 0.6
v -0.6 0.9 0.4
v -0.5 0.9 0.4
v -0.4 0.9 0.4
v 0.4 0.9 0.4
v 0.5 0.9 0.4
v 0.6 0.9 0.4
v -0.6 0.9 0.3
v -0.5 0.9 0.3
v 0.5 0.9 0.3
v 0.6 0.9 0.3
v -0.6 0.9 -1.1
v -0.5 0.9 -1.1
v 0.5 0.9 -1.1
v 0.6 0.9 -1.1
v -0.6 0.9 -1.2
v -0.5 0.9 -1.2
v -0.4 0.9 -1.2
v 0.4 0.9 -1.2
v 0.5 0.9 -1.2
v 0.6 0.9 -1.2
v -0.5 0.9 -1.3
v -0.4 0.9 -1.3
v -0.3 0.9 -1.3
v -0.2 0.9 -1.3
v 0.2 0.9 -1.3
v 0.3 0.9 -1.3
v 0.4 0.9 -1.3
v 0.5 0.9 -1.3
v -0.3 0.9 -1.4
v -0.2 0.9 -1.4
v 0.2 0.9 -1.4
v 0.3 0.9 -1.4
v -0.6 1 -1.2
v -0.5 1 -1.2
v 0.5 1 -1.2
v 0.6 1 -1.2
v -0.6 1 -1.3
v -0.5 1 -1.3
v -0.4 1 -1.3
v -0.3 1 -1.3
v 0.3 1 -1.3
v 0.4 1 -1.3
v 0.5 1 -1.3
v 0.6 1 -1.3
v -0.4 1 -1.4
v -0.3 1 -1.4
v 0.3 1 -1.4
v 0.4 1 -1.4
v -1.4 1.1 0
v -1.3 1.1 0
v -1.2 1.1 0
v 1.2 1.1 0
v 1.3 1.1 0
v 1.4 1.1 0
v -1.4 1.1 -0.2
v -1.3 1.1 -0.2
v -1.2 1.1 -0.2
v 1.2 1.1 -0.2
v 1.3 1.1 -0.2
v 1.4 1.1 -0.2
v -0.7 1.1 -0.4
v -0.6 1.1 -0.4
v 0.6 1.1 -0.4
v 0.7 1.1 -0.4
v -0.8 1.1 -0.5
v -0.7 1.1 -0.5
v 0.7 1.1 -0.5
v 0.8 1.1 -0.5
v -0.8 1.1 -0.9
v -0.7 1.1 -0.9
v 0.7 1.1 -0.9
v 0.8 1.1 -0.9
v -0.7 1.1 -1
v -0.6 1.1 -1
v 0.6 1.1 -1
v 0.7 1.1 -1
v -0.5 1.1 -1.3
v -0.4 1.1 -1.3
v 0.4 1.1 -1.3
v 0.5 1.1 -1.3
v -0.5 1.1 -1.4
v -0.4 1.1 -1.4
v 0.4 1.1 -1.4
v 0.5 1.1 -1.4
v -0.8 1.2 -0.4
v -0.7 1.2 -0.4
v 0.7 1.2 -0.4
v 0.8 1.2 -0.4
v -0.8 1.2 -0.5
v -0.7 1.2 -0.5
v 0.7 1.2 -0.5
v 0.8 1.2 -0.5
v -0.9 1.2 -0.6
v -0.8 1.2 -0.6
v 0.8 1.2 -0.6
v 0.9 1.2 -0.6
v -0.9 1.2 -0.8
v -0.8 1.2 -0.8
v 0.8 1.2 -0.8
v 0.9 1.2 -0.8
v -0.8 1.2 -0.9
v -0.7 1.2 -0.9
v 0.7 1.2 -0.9
v 0.8 1.2 -0.9
v -0.8 1.2 -1
v -0.7 1.2 -1
v 0.7 1.2 -1
v 0.8 1.2 -1
v -0.9 1.3 -0.5
v -0.8 1.3 -0.5
v 0.8 1.3 -0.5
v 0.9 1.3 -0.5
v -1 1.3 -0.6
v -0.9 1.3 -0.6
v -0.8 1.3 -0.6
v 0.8 1.3 -0.6
v 0.9 1.3 -0.6
v 1 1.3 -0.6
v -1 1.3 -0.8
v -0.9 1.3 -0.8
v -0.8 1.3 -0.8
v 0.8 1.3 -0.8
v 0.9 1.3 -0.8
v 1 1.3 -0.8
v -0.9 1.3 -0.9
v -0.8 1.3 -0.9
v 0.8 1.3 -0.9
v 0.9 1.3 -0.9
v -0.2 1.7 0.6
v 0.2 1.7 0.6
v -0.2 1.7 0.4
v 0.2 1.7 0.4
v -1.8 0.1 1.4
v -1.2 0.1 1.4
v 1.2 0.1 1.4
v 1.8 0.1 1.4
v -1.8 0.1 1.2
v -1.2 0.1 1.2
v 1.2 0.1 1.2
v 1.8 0.1 1.2
v -1.6 0.3 1.2
v -1.4 0.3 1.2
v 1.4 0.3 1.2
v 1.6 0.3 1.2
v -1.6 0.3 1
v -1.4 0.3 1
v 1.4 0.3 1
v 1.6 0.3 1
v -2 0.7 1
v -1.8 0.7 1
v -1.2 0.7 1
v -1 0.7 1
v 1 0.7 1
v 1.2 0.7 1
v 1.8 0.7 1
v 2 0.7 1
v -2 0.7 0.8
v -1.8 0.7 0.8
v -1.2 0.7 0.8
v -1 0.7 0.8
v 1 0.7 0.8
v 1.2 0.7 0.8
v 1.8 0.7 0.8
v 2 0.7 0.8
v -1.8 0.7 -0.3
v -1.7 0.7 -0.3
v -1.3 0.7 -0.3
v -1.2 0.7 -0.3
v 1.2 0.7 -0.3
v 1.3 0.7 -0.3
v 1.7 0.7 -0.3
v 1.8 0.7 -0.3
v -1.8 0.7 -0.4
v -1.7 0.7 -0.4
v -1.6 0.7 -0.4
v -1.4 0.7 -0.4
v -1.3 0.7 -0.4
v -1.2 0.7 -0.4
v 1.2 0.7 -0.4
v 1.3 0.7 -0.4
v 1.4 0.7 -0.4
v 1.6 0.7 -0.4
v 1.7 0.7 -0.4
v 1.8 0.7 -0.4
v -1.7 0.7 -0.5
v -1.6 0.7 -0.5
v -1.4 0.7 -0.5
v -1.3 0.7 -0.5
v 1.3 0.7 -0.5
v 1.4 0.7 -0.5
v 1.6 0.7 -0.5
v 1.7 0.7 -0.5
v -1.8 0.8 -0.2
v -1.7 0.8 -0.2
v -1.3 0.8 -0.2
v -1.2 0.8 -0.2
v 1.2 0.8 -0.2
v 1.3 0.8 -0.2
v 1.7 0.8 -0.2
v 1.8 0.8 -0.2
v -1.8 0.8 -0.3
v -1.7 0.8 -0.3
v -1.6 0.8 -0.3
v -1.4 0.8 -0.3
v -1.3 0.8 -0.3
v -1.2 0.8 -0.3
v 1.2 0.8 -0.3
v 1.3 0.8 -0.3
v 1.4 0.8 -0.3
v 1.6 0.8 -0.3
v 1.7 0.8 -0.3
v 1.8 0.8 -0.3
v -1.7 0.8 -0.4
v -1.6 0.8 -0.4
v -1.4 0.8 -0.4
v -1.3 0.8 -0.4
v 1.3 0.8 -0.4
v 1.4 0.8 -0.4
v 1.6 0.8 -0.4
v 1.7 0.8 -0.4
v -1.6 0.8 -0.5
v -1.4 0.8 -0.5
v 1.4 0.8 -0.5
v 1.6 0.8 -0.5
v -2 0.9 1.2
v -1.8 0.9 1.2
v -1.2 0.9 1.2
v -1 0.9 1.2
v 1 0.9 1.2
v 1.2 0.9 1.2
v 1.8 0.9 1.2
v 2 0.9 1.2
v -2 0.9 1
v -1.8 0.9 1
v -1.6 0.9 1
v -1.4 0.9 1
v -1.2 0.9 1
v -1 0.9 1
v 1 0.9 1
v 1.2 0.9 1
v 1.4 0.9 1
v 1.6 0.9 1
v 1.8 0.9 1
v 2 0.9 1
v -1.6 0.9 0.8
v -1.4 0.9 0.8
v 1.4 0.9 0.8
v 1.6 0.9 0.8
v -1.6 0.9 0
v -1.4 0.9 0
v 1.4 0.9 0
v 1.6 0.9 0
v -1.8 0.9 -0.2
v -1.7 0.9 -0.2
v -1.6 0.9 -0.2
v -1.4 0.9 -0.2
v -1.3 0.9 -0.2
v -1.2 0.9 -0.2
v 1.2 0.9 -0.2
v 1.3 0.9 -0.2
v 1.4 0.9 -0.2
v 1.6 0.9 -0.2
v 1.7 0.9 -0.2
v 1.8 0.9 -0.2
v -1.7 0.9 -0.3
v -1.6 0.9 -0.3
v -1.4 0.9 -0.3
v -1.3 0.9 -0.3
v 1.3 0.9 -0.3
v 1.4 0.9 -0.3
v 1.6 0.9 -0.3
v 1.7 0.9 -0.3
v -1.6 0.9 -0.4
v -1.4 0.9 -0.4
v 1.4 0.9 -0.4
v 1.6 0.9 -0.4
v -2 1.1 1.4
v -1 1.1 1.4
v 1 1.1 1.4
v 2 1.1 1.4
v -2 1.1 1.2
v -1.8 1.1 1.2
v -1.2 1.1 1.2
v -1 1.1 1.2
v 1 1.1 1.2
v 1.2 1.1 1.2
v 1.8 1.1 1.2
v 2 1.1 1.2
v -1.8 1.1 1
v -1.6 1.1 1
v -1.4 1.1 1
v -1.2 1.1 1
v 1.2 1.1 1
v 1.4 1.1 1
v 1.6 1.1 1
v 1.8 1.1 1
v -1.6 1.1 0.8
v -1.4 1.1 0.8
v 1.4 1.1 0.8
v 1.6 1.1 0.8
v -0.2 1.1 0.6
v 0.2 1.1 0.6
v -0.2 1.1 0.4
v 0.2 1.1 0.4
v -1.6 1.3 0
v -1.3 1.3 0
v -1.2 1.3 0
v 1.2 1.3 0
v 1.3 1.3 0
v 1.6 1.3 0
v -1.6 1.3 -0.2
v -1.3 1.3 -0.2
v -1.2 1.3 -0.2
v 1.2 1.3 -0.2
v 1.3 1.3 -0.2
v 1.6 1.3 -0.2
v -0.9 1.5 -0.5
v -0.8 1.5 -0.5
v 0.8 1.5 -0.5
v 0.9 1.5 -0.5
v -1 1.5 -0.6
v -0.9 1.5 -0.6
v -0.8 1.5 -0.6
v 0.8 1.5 -0.6
v 0.9 1.5 -0.6
v 1 1.5 -0.6
v -1 1.5 -0.8
v -0.9 1.5 -0.8
v -0.8 1.5 -0.8
v 0.8 1.5 -0.8
v 0.9 1.5 -0.8
v 1 1.5 -0.8
v -0.9 1.5 -0.9
v -0.8 1.5 -0.9
v 0.8 1.5 -0.9
v 0.9 1.5 -0.9
v -0.8 1.6 -0.4
v -0.7 1.6 -0.4
v 0.7 1.6 -0.4
v 0.8 1.6 -0.4
v -0.8 1.6 -0.5
v -0.7 1.6 -0.5
v 0.7 1.6 -0.5
v 0.8 1.6 -0.5
v -0.9 1.6 -0.6
v -0.8 1.6 -0.6
v 0.8 1.6 -0.6
v 0.9 1.6 -0.6
v -0.9 1.6 -0.8
v -0.8 1.6 -0.8
v 0.8 1.6 -0.8
v 0.9 1.6 -0.8
v -0.8 1.6 -0.9
v -0.7 1.6 -0.9
v 0.7 1.6 -0.9
v 0.8 1.6 -0.9
v -0.8 1.6 -1
v -0.7 1.6 -1
v 0.7 1.6 -1
v 0.8 1.6 -1
v -0.7 1.7 -0.4
v -0.6 1.7 -0.4
v 0.6 1.7 -0.4
v 0.7 1.7 -0.4
v -0.8 1.7 -0.5
v -0.7 1.7 -0.5
v 0.7 1.7 -0.5
v 0.8 1.7 -0.5
v -0.8 1.7 -0.9
v -0.7 1.7 -0.9
v 0.7 1.7 -0.9
v 0.8 1.7 -0.9
v -0.7 1.7 -1
v -0.6 1.7 -1
v 0.6 1.7 -1
v 0.7 1.7 -1
v -0.5 1.7 -1.3
v -0.4 1.7 -1.3
v 0.4 1.7 -1.3
v 0.5 1.7 -1.3
v -0.5 1.7 -1.4
v -0.4 1.7 -1.4
v 0.4 1.7 -1.4
v 0.5 1.7 -1.4
v -0.6 1.8 -1.2
v -0.5 1.8 -1.2
v 0.5 1.8 -1.2
v 0.6 1.8 -1.2
v -0.6 1.8 -1.3
v -0.5 1.8 -1.3
v -0.4 1.8 -1.3
v -0.3 1.8 -1.3
v 0.3 1.8 -1.3
v 0.4 1.8 -1.3
v 0.5 1.8 -1.3
v 0.6 1.8 -1.3
v -0.4 1.8 -1.4
v -0.3 1.8 -1.4
v 0.3 1.8 -1.4
v 0.4 1.8 -1.4
v -0.4 1.9 0.6
v 0.4 1.9 0.6
v -0.6 1.9 0.4
v -0.5 1.9 0.4
v -0.4 1.9 0.4
v 0.4 1.9 0.4
v 0.5 1.9 0.4
v 0.6 1.9 0.4
v -0.6 1.9 0.3
v -0.5 1.9 0.3
v 0.5 1.9 0.3
v 0.6 1.9 0.3
v -0.6 1.9 -1.1
v -0.5 1.9 -1.1
v 0.5 1.9 -1.1
v 0.6 1.9 -1.1
v -0.6 1.9 -1.2
v -0.5 1.9 -1.2
v -0.4 1.9 -1.2
v 0.4 1.9 -1.2
v 0.5 1.9 -1.2
v 0.6 1.9 -1.2
v -0.5 1.9 -1.3
v -0.4 1.9 -1.3
v -0.3 1.9 -1.3
v -0.2 1.9 -1.3
v 0.2 1.9 -1.3
v 0.3 1.9 -1.3
v 0.4 1.9 -1.3
v 0.5 1.9 -1.3
v -0.3 1.9 -1.4
v -0.2 1.9 -1.4
v 0.2 1.9 -1.4
v 0.3 1.9 -1.4
v -0.5 2 0.4
v -0.4 2 0.4
v 0.4 2 0.4
v 0.5 2 0.4
v -0.6 2 0.3
v -0.5 2 0.3
v -0.4 2 0.3
v 0.4 2 0.3
v 0.5 2 0.3
v 0.6 2 0.3
v -0.6 2 0.2
v -0.5 2 0.2
v 0.5 2 0.2
v 0.6 2 0.2
v -0.6 2 -1
v -0.5 2 -1
v 0.5 2 -1
v 0.6 2 -1
v -0.6 2 -1.1
v -0.5 2 -1.1
v -0.4 2 -1.1
v 0.4 2 -1.1
v 0.5 2 -1.1
v 0.6 2 -1.1
v -0.5 2 -1.2
v -0.4 2 -1.2
v -0.3 2 -1.2
v 0.3 2 -1.2
v 0.4 2 -1.2
v 0.5 2 -1.2
v -0.4 2 -1.3
v -0.3 2 -1.3
v -0.2 2 -1.3
v 0.2 2 -1.3
v 0.3 2 -1.3
v 0.4 2 -1.3
v -0.2 2 -1.4
v 0.2 2 -1.4
v -0.4 2.1 0.4
v 0.4 2.1 0.4
v -0.5 2.1 0.3
v -0.4 2.1 0.3
v 0.4 2.1 0.3
v 0.5 2.1 0.3
v -0.6 2.1 0.2
v -0.5 2.1 0.2
v 0.5 2.1 0.2
v 0.6 2.1 0.2
v -0.6 2.1 -1
v -0.5 2.1 -1
v 0.5 2.1 -1
v 0.6 2.1 -1
v -0.5 2.1 -1.1
v -0.4 2.1 -1.1
v 0.4 2.1 -1.1
v 0.5 2.1 -1.1
v -0.4 2.1 -1.2
v -0.3 2.1 -1.2
v 0.3 2.1 -1.2
v 0.4 2.1 -1.2
v -0.3 2.1 -1.3
v 0.3 2.1 -1.3

# faces
f 3/3/1 2/3/1 1/3/1
f 5/3/1 4/3/1 3/3/1
f 7/3/1 5/3/1 3/3/1
f 7/3/1 6/3/1 5/3/1
f 8/3/1 6/3/1 7/3/1
f 9/3/1 3/3/1 1/3/1
f 9/3/1 7/3/1 3/3/1
f 10/3/1 7/3/1 9/3/1
f 11/3/1 9/3/1 1/3/1
f 12/3/1 9/3/1 11/3/1
f 15/2/1 14/2/1 13/2/1
f 16/2/1 14/2/1 15/2/1
f 18/2/1 17/2/1 16/2/1
f 20/2/1 18/2/1 16/2/1
f 20/2/1 19/2/1 18/2/1
f 21/2/1 19/2/1 20/2/1
f 22/2/1 19/2/1 21/2/1
f 25/2/1 23/2/1 22/2/1
f 25/2/1 22/2/1 21/2/1
f 26/2/1 23/2/1 25/2/1
f 27/2/1 23/2/1 26/2/1
f 28/2/1 25/2/1 24/2/1
f 28/2/1 26/2/1 25/2/1
f 29/2/1 26/2/1 28/2/1
f 31/2/1 28/2/1 24/2/1
f 32/2/1 28/2/1 31/2/1
f 33/3/1 31/3/1 30/3/1
f 34/3/1 31/3/1 33/3/1
f 37/2/1 36/2/1 35/2/1
f 38/2/1 36/2/1 37/2/1
f 40/2/1 39/2/1 38/2/1
f 41/2/1 39/2/1 40/2/1
f 44/4/1 42/4/1 41/4/1
f 45/4/1 42/4/1 44/4/1
f 47/2/1 44/2/1 43/2/1
f 48/2/1 44/2/1 47/2/1
f 49/2/1 47/2/1 46/2/1
f 50/2/1 47/2/1 49/2/1
f 53/2/1 52/2/1 51/2/1
f 54/2/1 52/2/1 53/2/1
f 56/4/1 55/4/1 54/4/1
f 57/4/1 55/4/1 56/4/1
f 61/4/1 59/4/1 58/4/1
f 62/4/1 59/4/1 61/4/1
f 67/2/1 61/2/1 60/2/1
f 68/2/1 61/2/1 67/2/1
f 69/3/1 64/3/1 63/3/1
f 70/3/1 64/3/1 69/3/1
f 71/4/1 66/4/1 65/4/1
f 72/4/1 66/4/1 71/4/1
f 75/2/1 74/2/1 73/2/1
f 76/2/1 74/2/1 75/2/1
f 79/3/1 78/3/1 77/3/1
f 80/3/1 78/3/1 79/3/1
f 83/1/1 82/1/1 81/1/1
f 84/1/1 82/1/1 83/1/1
f 88/4/1 86/4/1 85/4/1
f 89/4/1 86/4/1 88/4/1
f 91/4/1 88/4/1 87/4/1
f 92/4/1 88/4/1 91/4/1
f 93/4/1 90/4/1 89/4/1
f 94/4/1 90/4/1 93/4/1
f 95/4/1 93/4/1 92/4/1
f 96/4/1 93/4/1 95/4/1
f 100/4/1 98/4/1 97/4/1
f 101/4/1 98/4/1 100/4/1
f 102/4/1 98/4/1 101/4/1
f 103/4/1 98/4/1 102/4/1
f 105/4/1 100/4/1 99/4/1
f 105/4/1 101/4/1 100/4/1
f 106/4/1 101/4/1 105/4/1
f 107/4/1 104/4/1 103/4/1
f 107/4/1 103/4/1 102/4/1
f 108/4/1 104/4/1 107/4/1
f 109/4/1 105/4/1 99/4/1
f 112/4/1 104/4/1 108/4/1
f 113/4/1 110/4/1 109/4/1
f 113/4/1 109/4/1 99/4/1
f 114/4/1 110/4/1 113/4/1
f 115/4/1 110/4/1 114/4/1
f 116/4/1 112/4/1 111/4/1
f 117/4/1 104/4/1 112/4/1
f 117/4/1 112/4/1 116/4/1
f 118/4/1 104/4/1 117/4/1
f 119/4/1 115/4/1 114/4/1
f 119/4/1 116/4/1 115/4/1
f 119/4/1 117/4/1 116/4/1
f 120/4/1 117/4/1 119/4/1
f 125/4/1 122/4/1 121/4/1
f 126/4/1 122/4/1 125/4/1
f 127/4/1 124/4/1 123/4/1
f 128/4/1 124/4/1 127/4/1
f 133/4/1 130/4/1 129/4/1
f 134/4/1 130/4/1 133/4/1
f 135/4/1 132/4/1 131/4/1
f 136/4/1 132/4/1 135/4/1
f 140/2/1 138/2/1 137/2/1
f 141/2/1 138/2/1 140/2/1
f 144/2/1 140/2/1 139/2/1
f 144/2/1 142/2/1 141/2/1
f 144/2/1 141/2/1 140/2/1
f 145/2/1 142/2/1 144/2/1
f 147/2/1 144/2/1 143/2/1
f 147/2/1 146/2/1 145/2/1
f 147/2/1 145/2/1 144/2/1
f 149/2/1 147/2/1 143/2/1
f 149/2/1 148/2/1 147/2/1
f 150/2/1 148/2/1 149/2/1
f 151/2/1 149/2/1 143/2/1
f 152/2/1 148/2/1 150/2/1
f 153/2/1 148/2/1 152/2/1
f 153/2/1 152/2/1 151/2/1
f 154/2/1 148/2/1 153/2/1
f 155/2/1 151/2/1 143/2/1
f 155/2/1 153/2/1 151/2/1
f 156/2/1 153/2/1 155/2/1
f 157/2/1 153/2/1 156/2/1
f 158/2/1 153/2/1 157/2/1
f 159/2/1 157/2/1 156/2/1
f 160/2/1 157/2/1 159/2/1
f 161/2/1 157/2/1 160/2/1
f 162/2/1 157/2/1 161/2/1
f 163/2/1 161/2/1 160/2/1
f 164/2/1 161/2/1 163/2/1
f 170/2/1 166/2/1 165/2/1
f 171/2/1 166/2/1 170/2/1
f 172/2/1 168/2/1 167/2/1
f 173/2/1 168/2/1 172/2/1
f 175/2/1 170/2/1 169/2/1
f 176/2/1 170/2/1 175/2/1
f 177/2/1 174/2/1 173/2/1
f 178/2/1 174/2/1 177/2/1
f 180/2/1 179/2/1 178/2/1
f 181/2/1 179/2/1 180/2/1
f 184/4/1 183/4/1 182/4/1
f 185/4/1 183/4/1 184/4/1
f 191/2/1 187/2/1 186/2/1
f 192/2/1 187/2/1 191/2/1
f 193/2/1 189/2/1 188/2/1
f 194/2/1 189/2/1 193/2/1
f 197/2/1 191/2/1 190/2/1
f 198/2/1 191/2/1 197/2/1
f 199/2/1 195/2/1 194/2/1
f 200/2/1 195/2/1 199/2/1
f 201/2/1 197/2/1 196/2/1
f 202/2/1 197/2/1 201/2/1
f 207/2/1 204/2/1 203/2/1
f 208/2/1 204/2/1 207/2/1
f 209/2/1 206/2/1 205/2/1
f 210/2/1 206/2/1 209/2/1
f 214/2/1 211/2/1 210/2/1
f 215/2/1 211/2/1 214/2/1
f 218/4/1 217/4/1 216/4/1
f 219/4/1 217/4/1 218/4/1
f 222/4/1 221/4/1 220/4/1
f 223/4/1 221/4/1 222/4/1
f 224/3/1 213/3/1 212/3/1
f 225/3/1 213/3/1 224/3/1
f 231/2/1 227/2/1 226/2/1
f 232/2/1 227/2/1 231/2/1
f 233/2/1 229/2/1 228/2/1
f 234/2/1 229/2/1 233/2/1
f 235/2/1 231/2/1 230/2/1
f 236/2/1 231/2/1 235/2/1
f 239/2/1 238/2/1 237/2/1
f 240/2/1 238/2/1 239/2/1
f 243/4/1 242/4/1 241/4/1
f 244/4/1 242/4/1 243/4/1
f 247/4/1 246/4/1 245/4/1
f 248/4/1 246/4/1 247/4/1
f 251/2/1 250/2/1 249/2/1
f 252/2/1 250/2/1 251/2/1
f 255/4/1 254/4/1 253/4/1
f 256/4/1 254/4/1 255/4/1
f 259/4/1 258/4/1 257/4/1
f 260/4/1 258/4/1 259/4/1
f 263/3/1 262/3/1 261/3/1
f 264/3/1 262/3/1 263/3/1
f 267/3/1 266/3/1 265/3/1
f 269/3/1 268/3/1 267/3/1
f 271/3/1 269/3/1 267/3/1
f 271/3/1 270/3/1 269/3/1
f 272/3/1 270/3/1 271/3/1
f 273/3/1 267/3/1 265/3/1
f 273/3/1 271/3/1 267/3/1
f 274/3/1 271/3/1 273/3/1
f 275/3/1 273/3/1 265/3/1
f 276/3/1 273/3/1 275/3/1
f 279/2/1 278/2/1 277/2/1
f 280/2/1 278/2/1 279/2/1
f 282/2/1 281/2/1 280/2/1
f 284/2/1 282/2/1 280/2/1
f 284/2/1 283/2/1 282/2/1
f 285/2/1 283/2/1 284/2/1
f 286/2/1 283/2/1 285/2/1
f 289/2/1 287/2/1 286/2/1
f 289/2/1 286/2/1 285/2/1
f 290/2/1 287/2/1 289/2/1
f 291/2/1 287/2/1 290/2/1
f 292/2/1 289/2/1 288/2/1
f 292/2/1 290/2/1 289/2/1
f 293/2/1 290/2/1 292/2/1
f 295/2/1 292/2/1 288/2/1
f 296/2/1 292/2/1 295/2/1
f 297/3/1 295/3/1 294/3/1
f 298/3/1 295/3/1 297/3/1
f 301/1/1 300/1/1 299/1/1
f 302/1/1 300/1/1 301/1/1
f 305/2/1 304/2/1 303/2/1
f 306/2/1 304/2/1 305/2/1
f 308/2/1 307/2/1 306/2/1
f 309/2/1 307/2/1 308/2/1
f 312/4/1 310/4/1 309/4/1
f 313/4/1 310/4/1 312/4/1
f 315/2/1 312/2/1 311/2/1
f 316/2/1 312/2/1 315/2/1
f 317/2/1 315/2/1 314/2/1
f 318/2/1 315/2/1 317/2/1
f 321/2/1 320/2/1 319/2/1
f 322/2/1 320/2/1 321/2/1
f 324/4/1 323/4/1 322/4/1
f 325/4/1 323/4/1 324/4/1
f 329/4/1 327/4/1 326/4/1
f 330/4/1 327/4/1 329/4/1
f 335/2/1 329/2/1 328/2/1
f 336/2/1 329/2/1 335/2/1
f 337/3/1 332/3/1 331/3/1
f 338/3/1 332/3/1 337/3/1
f 339/4/1 334/4/1 333/4/1
f 340/4/1 334/4/1 339/4/1
f 343/2/1 342/2/1 341/2/1
f 344/2/1 342/2/1 343/2/1
f 347/3/1 346/3/1 345/3/1
f 348/3/1 346/3/1 347/3/1
f 349/3/2 350/3/2 351/3/2
f 351/3/2 350/3/2 352/3/2
f 353/2/2 354/2/2 355/2/2
f 355/2/2 354/2/2 356/2/2
f 357/2/2 358/2/2 359/2/2
f 359/2/2 358/2/2 360/2/2
f 360/4/2 361/4/2 362/4/2
f 362/4/2 361/4/2 363/4/2
f 364/4/2 365/4/2 367/4/2
f 367/4/2 365/4/2 368/4/2
f 366/2/2 367/2/2 373/2/2
f 373/2/2 367/2/2 374/2/2
f 369/3/2 370/3/2 375/3/2
f 375/3/2 370/3/2 376/3/2
f 371/4/2 372/4/2 377/4/2
f 377/4/2 372/4/2 378/4/2
f 379/2/2 380/2/2 381/2/2
f 381/2/2 380/2/2 382/2/2
f 382/2/2 383/2/2 384/2/2
f 384/2/2 383/2/2 385/2/2
f 385/4/2 386/4/2 388/4/2
f 388/4/2 386/4/2 389/4/2
f 387/2/2 388/2/2 391/2/2
f 391/2/2 388/2/2 392/2/2
f 390/2/2 391/2/2 393/2/2
f 393/2/2 391/2/2 394/2/2
f 395/2/2 396/2/2 397/2/2
f 397/2/2 396/2/2 398/2/2
f 398/2/2 399/2/2 400/2/2
f 398/2/2 400/2/2 402/2/2
f 400/2/2 401/2/2 402/2/2
f 402/2/2 401/2/2 403/2/2
f 403/2/2 401/2/2 404/2/2
f 404/2/2 405/2/2 407/2/2
f 403/2/2 404/2/2 407/2/2
f 407/2/2 405/2/2 408/2/2
f 408/2/2 405/2/2 409/2/2
f 406/2/2 407/2/2 410/2/2
f 407/2/2 408/2/2 410/2/2
f 410/2/2 408/2/2 411/2/2
f 406/2/2 410/2/2 413/2/2
f 413/2/2 410/2/2 414/2/2
f 412/3/2 413/3/2 415/3/2
f 415/3/2 413/3/2 416/3/2
f 417/1/2 418/1/2 419/1/2
f 419/1/2 418/1/2 420/1/2
f 421/3/2 422/3/2 423/3/2
f 423/3/2 424/3/2 425/3/2
f 423/3/2 425/3/2 427/3/2
f 425/3/2 426/3/2 427/3/2
f 427/3/2 426/3/2 428/3/2
f 421/3/2 423/3/2 429/3/2
f 423/3/2 427/3/2 429/3/2
f 429/3/2 427/3/2 430/3/2
f 421/3/2 429/3/2 431/3/2
f 431/3/2 429/3/2 432/3/2
f 433/3/2 434/3/2 435/3/2
f 435/3/2 434/3/2 436/3/2
f 437/4/2 438/4/2 439/4/2
f 439/4/2 438/4/2 440/4/2
f 441/4/2 442/4/2 443/4/2
f 443/4/2 442/4/2 444/4/2
f 445/2/2 446/2/2 447/2/2
f 447/2/2 446/2/2 448/2/2
f 449/4/2 450/4/2 451/4/2
f 451/4/2 450/4/2 452/4/2
f 453/4/2 454/4/2 455/4/2
f 455/4/2 454/4/2 456/4/2
f 457/2/2 458/2/2 459/2/2
f 459/2/2 458/2/2 460/2/2
f 461/2/2 462/2/2 465/2/2
f 465/2/2 462/2/2 466/2/2
f 463/2/2 464/2/2 467/2/2
f 467/2/2 464/2/2 468/2/2
f 468/2/2 469/2/2 472/2/2
f 472/2/2 469/2/2 473/2/2
f 474/4/2 475/4/2 476/4/2
f 476/4/2 475/4/2 477/4/2
f 478/4/2 479/4/2 480/4/2
f 480/4/2 479/4/2 481/4/2
f 470/3/2 471/3/2 482/3/2
f 482/3/2 471/3/2 483/3/2
f 484/2/2 485/2/2 489/2/2
f 489/2/2 485/2/2 490/2/2
f 486/2/2 487/2/2 491/2/2
f 491/2/2 487/2/2 492/2/2
f 488/2/2 489/2/2 493/2/2
f 493/2/2 489/2/2 494/2/2
f 495/2/2 496/2/2 500/2/2
f 500/2/2 496/2/2 501/2/2
f 497/2/2 498/2/2 502/2/2
f 502/2/2 498/2/2 503/2/2
f 499/2/2 500/2/2 505/2/2
f 505/2/2 500/2/2 506/2/2
f 503/2/2 504/2/2 507/2/2
f 507/2/2 504/2/2 508/2/2
f 508/2/2 509/2/2 510/2/2
f 510/2/2 509/2/2 511/2/2
f 512/4/2 513/4/2 514/4/2
f 514/4/2 513/4/2 515/4/2
f 516/2/2 517/2/2 521/2/2
f 521/2/2 517/2/2 522/2/2
f 518/2/2 519/2/2 523/2/2
f 523/2/2 519/2/2 524/2/2
f 520/2/2 521/2/2 527/2/2
f 527/2/2 521/2/2 528/2/2
f 524/2/2 525/2/2 529/2/2
f 529/2/2 525/2/2 530/2/2
f 526/2/2 527/2/2 531/2/2
f 531/2/2 527/2/2 532/2/2
f 533/2/2 534/2/2 536/2/2
f 536/2/2 534/2/2 537/2/2
f 535/2/2 536/2/2 540/2/2
f 537/2/2 538/2/2 540/2/2
f 536/2/2 537/2/2 540/2/2
f 540/2/2 538/2/2 541/2/2
f 539/2/2 540/2/2 543/2/2
f 541/2/2 542/2/2 543/2/2
f 540/2/2 541/2/2 543/2/2
f 539/2/2 543/2/2 545/2/2
f 543/2/2 544/2/2 545/2/2
f 545/2/2 544/2/2 546/2/2
f 539/2/2 545/2/2 547/2/2
f 546/2/2 544/2/2 548/2/2
f 548/2/2 544/2/2 549/2/2
f 547/2/2 548/2/2 549/2/2
f 549/2/2 544/2/2 550/2/2
f 539/2/2 547/2/2 551/2/2
f 547/2/2 549/2/2 551/2/2
f 551/2/2 549/2/2 552/2/2
f 552/2/2 549/2/2 553/2/2
f 553/2/2 549/2/2 554/2/2
f 552/2/2 553/2/2 555/2/2
f 555/2/2 553/2/2 556/2/2
f 556/2/2 553/2/2 557/2/2
f 557/2/2 553/2/2 558/2/2
f 556/2/2 557/2/2 559/2/2
f 559/2/2 557/2/2 560/2/2
f 561/4/2 562/4/2 565/4/2
f 565/4/2 562/4/2 566/4/2
f 563/4/2 564/4/2 567/4/2
f 567/4/2 564/4/2 568/4/2
f 569/4/2 570/4/2 573/4/2
f 573/4/2 570/4/2 574/4/2
f 571/4/2 572/4/2 575/4/2
f 575/4/2 572/4/2 576/4/2
f 577/4/2 578/4/2 580/4/2
f 580/4/2 578/4/2 581/4/2
f 581/4/2 578/4/2 582/4/2
f 582/4/2 578/4/2 583/4/2
f 579/4/2 580/4/2 585/4/2
f 580/4/2 581/4/2 585/4/2
f 585/4/2 581/4/2 586/4/2
f 583/4/2 584/4/2 587/4/2
f 582/4/2 583/4/2 587/4/2
f 587/4/2 584/4/2 588/4/2
f 579/4/2 585/4/2 589/4/2
f 588/4/2 584/4/2 592/4/2
f 589/4/2 590/4/2 593/4/2
f 579/4/2 589/4/2 593/4/2
f 593/4/2 590/4/2 594/4/2
f 594/4/2 590/4/2 595/4/2
f 591/4/2 592/4/2 596/4/2
f 592/4/2 584/4/2 597/4/2
f 596/4/2 592/4/2 597/4/2
f 597/4/2 584/4/2 598/4/2
f 594/4/2 595/4/2 599/4/2
f 595/4/2 596/4/2 599/4/2
f 596/4/2 597/4/2 599/4/2
f 599/4/2 597/4/2 600/4/2
f 601/4/2 602/4/2 604/4/2
f 604/4/2 602/4/2 605/4/2
f 603/4/2 604/4/2 607/4/2
f 607/4/2 604/4/2 608/4/2
f 605/4/2 606/4/2 609/4/2
f 609/4/2 606/4/2 610/4/2
f 608/4/2 609/4/2 611/4/2
f 611/4/2 609/4/2 612/4/2
f 613/1/2 614/1/2 615/1/2
f 615/1/2 614/1/2 616/1/2
f 617/3/2 618/3/2 619/3/2
f 619/3/2 618/3/2 620/3/2
f 621/2/2 622/2/2 623/2/2
f 623/2/2 622/2/2 624/2/2
f 625/2/2 626/2/2 627/2/2
f 627/2/2 626/2/2 628/2/2
f 628/4/2 629/4/2 630/4/2
f 630/4/2 629/4/2 631/4/2
f 632/4/2 633/4/2 635/4/2
f 635/4/2 633/4/2 636/4/2
f 634/2/2 635/2/2 641/2/2
f 641/2/2 635/2/2 642/2/2
f 637/3/2 638/3/2 643/3/2
f 643/3/2 638/3/2 644/3/2
f 639/4/2 640/4/2 645/4/2
f 645/4/2 640/4/2 646/4/2
f 647/2/2 648/2/2 649/2/2
f 649/2/2 648/2/2 650/2/2
f 650/2/2 651/2/2 652/2/2
f 652/2/2 651/2/2 653/2/2
f 653/4/2 654/4/2 656/4/2
f 656/4/2 654/4/2 657/4/2
f 655/2/2 656/2/2 659/2/2
f 659/2/2 656/2/2 660/2/2
f 658/2/2 659/2/2 661/2/2
f 661/2/2 659/2/2 662/2/2
f 663/2/2 664/2/2 665/2/2
f 665/2/2 664/2/2 666/2/2
f 666/2/2 667/2/2 668/2/2
f 666/2/2 668/2/2 670/2/2
f 668/2/2 669/2/2 670/2/2
f 670/2/2 669/2/2 671/2/2
f 671/2/2 669/2/2 672/2/2
f 672/2/2 673/2/2 675/2/2
f 671/2/2 672/2/2 675/2/2
f 675/2/2 673/2/2 676/2/2
f 676/2/2 673/2/2 677/2/2
f 674/2/2 675/2/2 678/2/2
f 675/2/2 676/2/2 678/2/2
f 678/2/2 676/2/2 679/2/2
f 674/2/2 678/2/2 681/2/2
f 681/2/2 678/2/2 682/2/2
f 680/3/2 681/3/2 683/3/2
f 683/3/2 681/3/2 684/3/2
f 685/3/2 686/3/2 687/3/2
f 687/3/2 688/3/2 689/3/2
f 687/3/2 689/3/2 691/3/2
f 689/3/2 690/3/2 691/3/2
f 691/3/2 690/3/2 692/3/2
f 685/3/2 687/3/2 693/3/2
f 687/3/2 691/3/2 693/3/2
f 693/3/2 691/3/2 694/3/2
f 685/3/2 693/3/2 695/3/2
f 695/3/2 693/3/2 696/3/2
f 699/3/3 698/3/3 697/3/3
f 700/3/3 698/3/3 699/3/3
f 701/3/3 699/3/3 697/3/3
f 702/3/3 698/3/3 700/3/3
f 703/3/3 701/3/3 697/3/3
f 703/3/3 702/3/3 701/3/3
f 704/3/3 698/3/3 702/3/3
f 704/3/3 702/3/3 703/3/3
f 707/3/3 706/3/3 705/3/3
f 708/3/3 706/3/3 707/3/3
f 709/3/3 707/3/3 705/3/3
f 710/3/3 706/3/3 708/3/3
f 711/3/3 709/3/3 705/3/3
f 711/3/3 710/3/3 709/3/3
f 712/3/3 706/3/3 710/3/3
f 712/3/3 710/3/3 711/3/3
f 715/2/3 714/2/3 713/2/3
f 716/2/3 714/2/3 715/2/3
f 717/2/3 715/2/3 713/2/3
f 718/2/3 714/2/3 716/2/3
f 719/2/3 717/2/3 713/2/3
f 719/2/3 718/2/3 717/2/3
f 720/2/3 714/2/3 718/2/3
f 720/2/3 718/2/3 719/2/3
f 723/2/3 722/2/3 721/2/3
f 724/2/3 722/2/3 723/2/3
f 725/2/3 723/2/3 721/2/3
f 726/2/3 722/2/3 724/2/3
f 727/2/3 725/2/3 721/2/3
f 727/2/3 726/2/3 725/2/3
f 728/2/3 722/2/3 726/2/3
f 728/2/3 726/2/3 727/2/3
f 731/2/3 730/2/3 729/2/3
f 732/2/3 730/2/3 731/2/3
f 735/2/3 734/2/3 733/2/3
f 736/2/3 734/2/3 735/2/3
f 739/3/3 738/3/3 737/3/3
f 740/3/3 738/3/3 739/3/3
f 741/3/3 739/3/3 737/3/3
f 742/3/3 738/3/3 740/3/3
f 743/3/3 741/3/3 737/3/3
f 743/3/3 742/3/3 741/3/3
f 744/3/3 738/3/3 742/3/3
f 744/3/3 742/3/3 743/3/3
f 748/2/3 746/2/3 745/2/3
f 749/2/3 746/2/3 748/2/3
f 752/2/3 748/2/3 747/2/3
f 752/2/3 750/2/3 749/2/3
f 752/2/3 749/2/3 748/2/3
f 753/2/3 750/2/3 752/2/3
f 754/2/3 750/2/3 753/2/3
f 755/2/3 750/2/3 754/2/3
f 759/1/3 758/1/3 757/1/3
f 760/1/3 758/1/3 759/1/3
f 761/2/3 752/2/3 751/2/3
f 761/2/3 753/2/3 752/2/3
f 762/2/3 753/2/3 761/2/3
f 763/2/3 753/2/3 762/2/3
f 764/2/3 756/2/3 755/2/3
f 764/2/3 755/2/3 754/2/3
f 765/2/3 756/2/3 764/2/3
f 766/2/3 756/2/3 765/2/3
f 767/2/3 763/2/3 762/2/3
f 767/2/3 765/2/3 764/2/3
f 767/2/3 764/2/3 763/2/3
f 768/2/3 765/2/3 767/2/3
f 769/2/3 765/2/3 768/2/3
f 770/2/3 765/2/3 769/2/3
f 771/2/3 769/2/3 768/2/3
f 772/2/3 769/2/3 771/2/3
f 778/2/3 774/2/3 773/2/3
f 779/2/3 774/2/3 778/2/3
f 780/2/3 776/2/3 775/2/3
f 781/2/3 776/2/3 780/2/3
f 783/2/3 778/2/3 777/2/3
f 784/2/3 778/2/3 783/2/3
f 785/2/3 782/2/3 781/2/3
f 786/2/3 782/2/3 785/2/3
f 791/2/3 788/2/3 787/2/3
f 792/2/3 788/2/3 791/2/3
f 795/2/3 790/2/3 789/2/3
f 796/2/3 790/2/3 795/2/3
f 797/2/3 793/2/3 792/2/3
f 798/2/3 793/2/3 797/2/3
f 799/2/3 795/2/3 794/2/3
f 800/2/3 795/2/3 799/2/3
f 805/2/3 802/2/3 801/2/3
f 806/2/3 802/2/3 805/2/3
f 807/2/3 804/2/3 803/2/3
f 808/2/3 804/2/3 807/2/3
f 813/2/3 810/2/3 809/2/3
f 814/2/3 810/2/3 813/2/3
f 815/2/3 812/2/3 811/2/3
f 816/2/3 812/2/3 815/2/3
f 819/4/3 818/4/3 817/4/3
f 820/4/3 818/4/3 819/4/3
f 821/4/3 818/4/3 820/4/3
f 822/4/3 818/4/3 821/4/3
f 823/1/3 822/1/3 821/1/3
f 824/1/3 822/1/3 823/1/3
f 827/1/3 826/1/3 825/1/3
f 828/1/3 826/1/3 827/1/3
f 830/4/3 828/4/3 827/4/3
f 831/4/3 830/4/3 829/4/3
f 832/4/3 828/4/3 830/4/3
f 832/4/3 830/4/3 831/4/3
f 836/4/3 834/4/3 833/4/3
f 837/4/3 834/4/3 836/4/3
f 839/4/3 836/4/3 835/4/3
f 839/4/3 838/4/3 837/4/3
f 839/4/3 837/4/3 836/4/3
f 840/4/3 838/4/3 839/4/3
f 843/4/3 842/4/3 841/4/3
f 844/4/3 842/4/3 843/4/3
f 845/4/3 842/4/3 844/4/3
f 846/4/3 842/4/3 845/4/3
f 847/4/3 845/4/3 844/4/3
f 848/4/3 845/4/3 847/4/3
f 853/4/3 850/4/3 849/4/3
f 854/4/3 850/4/3 853/4/3
f 857/4/3 852/4/3 851/4/3
f 858/4/3 852/4/3 857/4/3
f 859/4/3 856/4/3 855/4/3
f 860/4/3 856/4/3 859/4/3
f 865/4/3 862/4/3 861/4/3
f 866/4/3 862/4/3 865/4/3
f 869/4/3 864/4/3 863/4/3
f 870/4/3 864/4/3 869/4/3
f 871/4/3 868/4/3 867/4/3
f 872/4/3 868/4/3 871/4/3
f 876/1/3 874/1/3 873/1/3
f 877/1/3 874/1/3 876/1/3
f 879/4/3 876/4/3 875/4/3
f 880/4/3 876/4/3 879/4/3
f 881/4/3 878/4/3 877/4/3
f 882/4/3 878/4/3 881/4/3
f 887/4/3 884/4/3 883/4/3
f 888/4/3 884/4/3 887/4/3
f 889/4/3 886/4/3 885/4/3
f 890/4/3 886/4/3 889/4/3
f 891/1/3 889/1/3 888/1/3
f 892/1/3 889/1/3 891/1/3
f 893/3/4 894/3/4 897/3/4
f 897/3/4 894/3/4 898/3/4
f 895/3/4 896/3/4 899/3/4
f 899/3/4 896/3/4 900/3/4
f 901/3/4 902/3/4 905/3/4
f 905/3/4 902/3/4 906/3/4
f 903/3/4 904/3/4 907/3/4
f 907/3/4 904/3/4 908/3/4
f 909/3/4 910/3/4 913/3/4
f 913/3/4 910/3/4 914/3/4
f 911/3/4 912/3/4 915/3/4
f 915/3/4 912/3/4 916/3/4
f 917/3/4 918/3/4 921/3/4
f 921/3/4 918/3/4 922/3/4
f 919/3/4 920/3/4 923/3/4
f 923/3/4 920/3/4 924/3/4
f 925/3/4 926/3/4 930/3/4
f 930/3/4 926/3/4 931/3/4
f 927/3/4 928/3/4 932/3/4
f 932/3/4 928/3/4 933/3/4
f 933/3/4 934/3/4 935/3/4
f 935/3/4 934/3/4 936/3/4
f 929/2/4 930/2/4 939/2/4
f 939/2/4 930/2/4 940/2/4
f 937/3/4 938/3/4 943/3/4
f 943/3/4 938/3/4 944/3/4
f 940/3/4 941/3/4 945/3/4
f 945/3/4 941/3/4 946/3/4
f 942/3/4 943/3/4 947/3/4
f 947/3/4 943/3/4 948/3/4
f 949/3/4 950/3/4 954/3/4
f 954/3/4 950/3/4 955/3/4
f 951/3/4 952/3/4 956/3/4
f 956/3/4 952/3/4 957/3/4
f 957/3/4 958/3/4 959/3/4
f 959/3/4 958/3/4 960/3/4
f 953/2/4 954/2/4 963/2/4
f 963/2/4 954/2/4 964/2/4
f 961/3/4 962/3/4 967/3/4
f 967/3/4 962/3/4 968/3/4
f 964/3/4 965/3/4 969/3/4
f 969/3/4 965/3/4 970/3/4
f 966/3/4 967/3/4 971/3/4
f 971/3/4 967/3/4 972/3/4
f 973/3/4 974/3/4 975/3/4
f 975/3/4 974/3/4 976/3/4
f 977/3/4 978/3/4 979/3/4
f 979/3/4 978/3/4 980/3/4
f 981/3/4 982/3/4 983/3/4
f 983/3/4 982/3/4 984/3/4
f 985/3/4 986/3/4 987/3/4
f 987/3/4 986/3/4 988/3/4
f 989/3/4 990/3/4 991/3/4
f 991/3/4 990/3/4 992/3/4
f 993/3/4 994/3/4 995/3/4
f 995/3/4 994/3/4 996/3/4
f 997/2/4 998/2/4 1001/2/4
f 1001/2/4 998/2/4 1002/2/4
f 999/2/4 1000/2/4 1003/2/4
f 1003/2/4 1000/2/4 1004/2/4
f 1005/4/4 1006/4/4 1007/4/4
f 1007/4/4 1006/4/4 1008/4/4
f 1008/4/4 1006/4/4 1013/4/4
f 1013/4/4 1006/4/4 1014/4/4
f 1009/2/4 1010/2/4 1015/2/4
f 1015/2/4 1010/2/4 1016/2/4
f 1011/2/4 1012/2/4 1017/2/4
f 1017/2/4 1012/2/4 1018/2/4
f 1013/1/4 1014/1/4 1019/1/4
f 1019/1/4 1014/1/4 1020/1/4
f 1021/2/4 1022/2/4 1027/2/4
f 1027/2/4 1022/2/4 1028/2/4
f 1023/2/4 1024/2/4 1029/2/4
f 1029/2/4 1024/2/4 1030/2/4
f 1025/1/4 1026/1/4 1031/1/4
f 1031/1/4 1026/1/4 1032/1/4
f 1031/4/4 1032/4/4 1034/4/4
f 1033/4/4 1034/4/4 1035/4/4
f 1034/4/4 1032/4/4 1036/4/4
f 1035/4/4 1034/4/4 1036/4/4
f 1037/2/4 1038/2/4 1041/2/4
f 1041/2/4 1038/2/4 1042/2/4
f 1039/2/4 1040/2/4 1043/2/4
f 1043/2/4 1040/2/4 1044/2/4
f 1045/2/4 1046/2/4 1050/2/4
f 1050/2/4 1046/2/4 1051/2/4
f 1047/2/4 1048/2/4 1052/2/4
f 1052/2/4 1048/2/4 1053/2/4
f 1049/2/4 1050/2/4 1055/2/4
f 1055/2/4 1050/2/4 1056/2/4
f 1053/2/4 1054/2/4 1057/2/4
f 1057/2/4 1054/2/4 1058/2/4
f 1059/2/4 1060/2/4 1063/2/4
f 1063/2/4 1060/2/4 1064/2/4
f 1061/2/4 1062/2/4 1067/2/4
f 1067/2/4 1062/2/4 1068/2/4
f 1064/2/4 1065/2/4 1069/2/4
f 1069/2/4 1065/2/4 1070/2/4
f 1066/2/4 1067/2/4 1071/2/4
f 1071/2/4 1067/2/4 1072/2/4
f 1073/2/4 1074/2/4 1078/2/4
f 1078/2/4 1074/2/4 1079/2/4
f 1075/2/4 1076/2/4 1080/2/4
f 1080/2/4 1076/2/4 1081/2/4
f 1077/2/4 1078/2/4 1083/2/4
f 1083/2/4 1078/2/4 1084/2/4
f 1081/2/4 1082/2/4 1085/2/4
f 1085/2/4 1082/2/4 1086/2/4
f 1087/2/4 1088/2/4 1091/2/4
f 1091/2/4 1088/2/4 1092/2/4
f 1089/2/4 1090/2/4 1095/2/4
f 1095/2/4 1090/2/4 1096/2/4
f 1092/2/4 1093/2/4 1097/2/4
f 1097/2/4 1093/2/4 1098/2/4
f 1094/2/4 1095/2/4 1099/2/4
f 1099/2/4 1095/2/4 1100/2/4
f 1101/2/4 1102/2/4 1104/2/4
f 1104/2/4 1102/2/4 1105/2/4
f 1103/2/4 1104/2/4 1108/2/4
f 1108/2/4 1104/2/4 1109/2/4
f 1105/2/4 1106/2/4 1110/2/4
f 1110/2/4 1106/2/4 1111/2/4
f 1107/2/4 1108/2/4 1113/2/4
f 1113/2/4 1108/2/4 1114/2/4
f 1111/2/4 1112/2/4 1117/2/4
f 1117/2/4 1112/2/4 1118/2/4
f 1114/2/4 1115/2/4 1119/2/4
f 1119/2/4 1115/2/4 1120/2/4
f 1116/2/4 1117/2/4 1121/2/4
f 1121/2/4 1117/2/4 1122/2/4
f 1120/2/4 1121/2/4 1123/2/4
f 1123/2/4 1121/2/4 1124/2/4
f 1125/2/4 1126/2/4 1128/2/4
f 1128/2/4 1126/2/4 1129/2/4
f 1127/2/4 1128/2/4 1132/2/4
f 1132/2/4 1128/2/4 1133/2/4
f 1129/2/4 1130/2/4 1134/2/4
f 1134/2/4 1130/2/4 1135/2/4
f 1131/2/4 1132/2/4 1137/2/4
f 1137/2/4 1132/2/4 1138/2/4
f 1135/2/4 1136/2/4 1141/2/4
f 1141/2/4 1136/2/4 1142/2/4
f 1138/2/4 1139/2/4 1143/2/4
f 1143/2/4 1139/2/4 1144/2/4
f 1140/2/4 1141/2/4 1145/2/4
f 1145/2/4 1141/2/4 1146/2/4
f 1144/2/4 1145/2/4 1147/2/4
f 1147/2/4 1145/2/4 1148/2/4
f 1149/4/4 1150/4/4 1152/4/4
f 1152/4/4 1150/4/4 1153/4/4
f 1151/4/4 1152/4/4 1155/4/4
f 1152/1/4 1153/1/4 1156/1/4
f 1155/4/4 1152/4/4 1156/4/4
f 1153/4/4 1154/4/4 1157/4/4
f 1156/1/4 1153/1/4 1157/1/4
f 1157/4/4 1154/4/4 1158/4/4
f 1156/4/4 1157/4/4 1159/4/4
f 1159/4/4 1157/4/4 1160/4/4
f 1161/4/4 1162/4/4 1164/4/4
f 1164/4/4 1162/4/4 1165/4/4
f 1163/4/4 1164/4/4 1167/4/4
f 1164/1/4 1165/1/4 1168/1/4
f 1167/4/4 1164/4/4 1168/4/4
f 1165/4/4 1166/4/4 1169/4/4
f 1168/1/4 1165/1/4 1169/1/4
f 1169/4/4 1166/4/4 1170/4/4
f 1168/4/4 1169/4/4 1171/4/4
f 1171/4/4 1169/4/4 1172/4/4
f 1173/1/4 1174/1/4 1176/1/4
f 1176/1/4 1174/1/4 1177/1/4
f 1175/4/4 1176/4/4 1179/4/4
f 1179/4/4 1176/4/4 1180/4/4
f 1177/4/4 1178/4/4 1181/4/4
f 1181/4/4 1178/4/4 1182/4/4
f 1183/4/4 1184/4/4 1187/4/4
f 1187/4/4 1184/4/4 1188/4/4
f 1185/4/4 1186/4/4 1189/4/4
f 1189/4/4 1186/4/4 1190/4/4
f 1188/1/4 1189/1/4 1191/1/4
f 1191/1/4 1189/1/4 1192/1/4
f 1193/4/4 1194/4/4 1197/4/4
f 1197/4/4 1194/4/4 1198/4/4
f 1195/4/4 1196/4/4 1201/4/4
f 1201/4/4 1196/4/4 1202/4/4
f 1199/4/4 1200/4/4 1203/4/4
f 1203/4/4 1200/4/4 1204/4/4
f 1205/4/4 1206/4/4 1209/4/4
f 1209/4/4 1206/4/4 1210/4/4
f 1207/4/4 1208/4/4 1213/4/4
f 1213/4/4 1208/4/4 1214/4/4
f 1211/4/4 1212/4/4 1215/4/4
f 1215/4/4 1212/4/4 1216/4/4
f 1217/4/4 1218/4/4 1220/4/4
f 1220/4/4 1218/4/4 1221/4/4
f 1219/4/4 1220/4/4 1225/4/4
f 1220/4/4 1221/4/4 1225/4/4
f 1221/4/4 1222/4/4 1225/4/4
f 1225/4/4 1222/4/4 1226/4/4
f 1223/2/4 1224/2/4 1229/2/4
f 1229/2/4 1224/2/4 1230/2/4
f 1227/2/4 1228/2/4 1231/2/4
f 1231/2/4 1228/2/4 1232/2/4
f 1233/2/4 1234/2/4 1237/2/4
f 1237/2/4 1234/2/4 1238/2/4
f 1235/2/4 1236/2/4 1241/2/4
f 1241/2/4 1236/2/4 1242/2/4
f 1239/4/4 1240/4/4 1243/4/4
f 1243/4/4 1240/4/4 1244/4/4
f 1244/4/4 1240/4/4 1245/4/4
f 1245/4/4 1240/4/4 1246/4/4
f 1244/4/4 1245/4/4 1247/4/4
f 1247/4/4 1245/4/4 1248/4/4
f 1249/2/4 1250/2/4 1254/2/4
f 1254/2/4 1250/2/4 1255/2/4
f 1251/2/4 1252/2/4 1256/2/4
f 1256/2/4 1252/2/4 1257/2/4
f 1253/2/4 1254/2/4 1259/2/4
f 1259/2/4 1254/2/4 1260/2/4
f 1257/2/4 1258/2/4 1261/2/4
f 1261/2/4 1258/2/4 1262/2/4
f 1263/2/4 1264/2/4 1267/2/4
f 1267/2/4 1264/2/4 1268/2/4
f 1265/2/4 1266/2/4 1271/2/4
f 1271/2/4 1266/2/4 1272/2/4
f 1268/2/4 1269/2/4 1273/2/4
f 1273/2/4 1269/2/4 1274/2/4
f 1270/2/4 1271/2/4 1275/2/4
f 1275/2/4 1271/2/4 1276/2/4
f 1277/2/4 1278/2/4 1282/2/4
f 1282/2/4 1278/2/4 1283/2/4
f 1279/2/4 1280/2/4 1284/2/4
f 1284/2/4 1280/2/4 1285/2/4
f 1281/2/4 1282/2/4 1288/2/4
f 1288/2/4 1282/2/4 1289/2/4
f 1285/2/4 1286/2/4 1290/2/4
f 1290/2/4 1286/2/4 1291/2/4
f 1287/2/4 1288/2/4 1293/2/4
f 1293/2/4 1288/2/4 1294/2/4
f 1291/2/4 1292/2/4 1295/2/4
f 1295/2/4 1292/2/4 1296/2/4
f 1297/2/4 1298/2/4 1301/2/4
f 1301/2/4 1298/2/4 1302/2/4
f 1299/2/4 1300/2/4 1305/2/4
f 1305/2/4 1300/2/4 1306/2/4
f 1302/2/4 1303/2/4 1307/2/4
f 1307/2/4 1303/2/4 1308/2/4
f 1304/2/4 1305/2/4 1311/2/4
f 1311/2/4 1305/2/4 1312/2/4
f 1308/2/4 1309/2/4 1313/2/4
f 1313/2/4 1309/2/4 1314/2/4
f 1310/2/4 1311/2/4 1315/2/4
f 1315/2/4 1311/2/4 1316/2/4
f 1317/2/4 1318/2/4 1320/2/4
f 1320/2/4 1318/2/4 1321/2/4
f 1321/2/4 1318/2/4 1322/2/4
f 1322/2/4 1318/2/4 1323/2/4
f 1319/2/4 1320/2/4 1326/2/4
f 1320/2/4 1321/2/4 1326/2/4
f 1326/2/4 1321/2/4 1327/2/4
f 1327/2/4 1321/2/4 1328/2/4
f 1322/2/4 1323/2/4 1329/2/4
f 1323/2/4 1324/2/4 1329/2/4
f 1329/2/4 1324/2/4 1330/2/4
f 1330/2/4 1324/2/4 1331/2/4
f 1326/2/4 1327/2/4 1334/2/4
f 1325/2/4 1326/2/4 1334/2/4
f 1334/2/4 1327/2/4 1335/2/4
f 1335/2/4 1327/2/4 1336/2/4
f 1331/2/4 1332/2/4 1337/2/4
f 1330/2/4 1331/2/4 1337/2/4
f 1337/2/4 1332/2/4 1338/2/4
f 1338/2/4 1332/2/4 1339/2/4
f 1334/2/4 1335/2/4 1341/2/4
f 1333/2/4 1334/2/4 1341/2/4
f 1341/2/4 1335/2/4 1342/2/4
f 1339/2/4 1340/2/4 1343/2/4
f 1338/2/4 1339/2/4 1343/2/4
f 1343/2/4 1340/2/4 1344/2/4
f 1333/2/4 1341/2/4 1345/2/4
f 1344/2/4 1340/2/4 1348/2/4
f 1345/2/4 1346/2/4 1349/2/4
f 1333/2/4 1345/2/4 1349/2/4
f 1349/2/4 1346/2/4 1350/2/4
f 1350/2/4 1346/2/4 1351/2/4
f 1347/2/4 1348/2/4 1354/2/4
f 1348/2/4 1340/2/4 1355/2/4
f 1354/2/4 1348/2/4 1355/2/4
f 1355/2/4 1340/2/4 1356/2/4
f 1351/2/4 1352/2/4 1357/2/4
f 1350/2/4 1351/2/4 1357/2/4
f 1357/2/4 1352/2/4 1358/2/4
f 1358/2/4 1352/2/4 1359/2/4
f 1353/2/4 1354/2/4 1362/2/4
f 1354/2/4 1355/2/4 1362/2/4
f 1362/2/4 1355/2/4 1363/2/4
f 1363/2/4 1355/2/4 1364/2/4
f 1359/2/4 1360/2/4 1365/2/4
f 1358/2/4 1359/2/4 1365/2/4
f 1365/2/4 1360/2/4 1366/2/4
f 1366/2/4 1360/2/4 1367/2/4
f 1362/2/4 1363/2/4 1368/2/4
f 1361/2/4 1362/2/4 1368/2/4
f 1368/2/4 1363/2/4 1369/2/4
f 1369/2/4 1363/2/4 1370/2/4
f 1366/2/4 1367/2/4 1371/2/4
f 1368/2/4 1369/2/4 1371/2/4
f 1367/2/4 1368/2/4 1371/2/4
f 1371/2/4 1369/2/4 1372/2/4
f 1373/4/4 1374/4/4 1376/4/4
f 1376/4/4 1374/4/4 1377/4/4
f 1377/4/4 1374/4/4 1378/4/4
f 1378/4/4 1374/4/4 1379/4/4
f 1375/4/4 1376/4/4 1382/4/4
f 1376/4/4 1377/4/4 1382/4/4
f 1382/4/4 1377/4/4 1383/4/4
f 1377/1/4 1378/1/4 1384/1/4
f 1383/4/4 1377/4/4 1384/4/4
f 1379/4/4 1380/4/4 1385/4/4
f 1384/1/4 1378/1/4 1385/1/4
f 1378/4/4 1379/4/4 1385/4/4
f 1385/4/4 1380/4/4 1386/4/4
f 1386/4/4 1380/4/4 1387/4/4
f 1381/4/4 1382/4/4 1390/4/4
f 1382/4/4 1383/4/4 1390/4/4
f 1390/4/4 1383/4/4 1391/4/4
f 1383/1/4 1384/1/4 1392/1/4
f 1391/4/4 1383/4/4 1392/4/4
f 1384/1/4 1385/1/4 1392/1/4
f 1385/1/4 1386/1/4 1392/1/4
f 1387/4/4 1388/4/4 1393/4/4
f 1392/1/4 1386/1/4 1393/1/4
f 1386/4/4 1387/4/4 1393/4/4
f 1393/4/4 1388/4/4 1394/4/4
f 1394/4/4 1388/4/4 1395/4/4
f 1390/4/4 1391/4/4 1397/4/4
f 1389/4/4 1390/4/4 1397/4/4
f 1391/1/4 1392/1/4 1398/1/4
f 1397/4/4 1391/4/4 1398/4/4
f 1392/1/4 1393/1/4 1398/1/4
f 1393/1/4 1394/1/4 1398/1/4
f 1395/4/4 1396/4/4 1399/4/4
f 1398/1/4 1394/1/4 1399/1/4
f 1394/4/4 1395/4/4 1399/4/4
f 1399/4/4 1396/4/4 1400/4/4
f 1397/1/4 1398/1/4 1401/1/4
f 1389/4/4 1397/4/4 1401/4/4
f 1399/1/4 1400/1/4 1401/1/4
f 1398/1/4 1399/1/4 1401/1/4
f 1401/1/4 1400/1/4 1402/1/4
f 1402/1/4 1400/1/4 1403/1/4
f 1400/4/4 1396/4/4 1404/4/4
f 1403/1/4 1400/1/4 1404/1/4
f 1389/4/4 1401/4/4 1405/4/4
f 1401/4/4 1402/4/4 1405/4/4
f 1405/4/4 1402/4/4 1406/4/4
f 1402/1/4 1403/1/4 1407/1/4
f 1406/4/4 1402/4/4 1407/4/4
f 1407/1/4 1403/1/4 1408/1/4
f 1408/1/4 1403/1/4 1409/1/4
f 1403/4/4 1404/4/4 1410/4/4
f 1409/1/4 1403/1/4 1410/1/4
f 1404/4/4 1396/4/4 1411/4/4
f 1410/4/4 1404/4/4 1411/4/4
f 1411/4/4 1396/4/4 1412/4/4
f 1406/4/4 1407/4/4 1413/4/4
f 1407/4/4 1408/4/4 1413/4/4
f 1413/4/4 1408/4/4 1414/4/4
f 1408/1/4 1409/1/4 1415/1/4
f 1414/4/4 1408/4/4 1415/4/4
f 1415/1/4 1409/1/4 1416/1/4
f 1416/1/4 1409/1/4 1417/1/4
f 1409/4/4 1410/4/4 1418/4/4
f 1417/1/4 1409/1/4 1418/1/4
f 1410/4/4 1411/4/4 1418/4/4
f 1418/4/4 1411/4/4 1419/4/4
f 1419/4/4 1411/4/4 1420/4/4
f 1415/4/4 1416/4/4 1421/4/4
f 1414/4/4 1415/4/4 1421/4/4
f 1421/4/4 1416/4/4 1422/4/4
f 1416/1/4 1417/1/4 1423/1/4
f 1422/4/4 1416/4/4 1423/4/4
f 1418/4/4 1419/4/4 1424/4/4
f 1423/1/4 1417/1/4 1424/1/4
f 1417/4/4 1418/4/4 1424/4/4
f 1424/4/4 1419/4/4 1425/4/4
f 1425/4/4 1419/4/4 1426/4/4
f 1422/4/4 1423/4/4 1427/4/4
f 1424/4/4 1425/4/4 1427/4/4
f 1423/4/4 1424/4/4 1427/4/4
f 1427/4/4 1425/4/4 1428/4/4
f 1433/3/5 1430/3/5 1429/3/5
f 1434/3/5 1430/3/5 1433/3/5
f 1435/3/5 1430/3/5 1434/3/5
f 1436/3/5 1430/3/5 1435/3/5
f 1437/3/5 1432/3/5 1431/3/5
f 1438/3/5 1432/3/5 1437/3/5
f 1439/3/5 1432/3/5 1438/3/5
f 1440/3/5 1432/3/5 1439/3/5
f 1441/2/5 1435/2/5 1434/2/5
f 1442/2/5 1435/2/5 1441/2/5
f 1443/2/5 1439/2/5 1438/2/5
f 1444/2/5 1439/2/5 1443/2/5
f 1453/3/5 1446/3/5 1445/3/5
f 1454/3/5 1446/3/5 1453/3/5
f 1455/3/5 1448/3/5 1447/3/5
f 1456/3/5 1448/3/5 1455/3/5
f 1457/3/5 1450/3/5 1449/3/5
f 1458/3/5 1450/3/5 1457/3/5
f 1459/3/5 1452/3/5 1451/3/5
f 1460/3/5 1452/3/5 1459/3/5
f 1461/2/5 1455/2/5 1454/2/5
f 1462/2/5 1455/2/5 1461/2/5
f 1463/2/5 1455/2/5 1462/2/5
f 1464/2/5 1455/2/5 1463/2/5
f 1465/2/5 1459/2/5 1458/2/5
f 1466/2/5 1459/2/5 1465/2/5
f 1467/2/5 1459/2/5 1466/2/5
f 1468/2/5 1459/2/5 1467/2/5
f 1469/2/5 1463/2/5 1462/2/5
f 1470/2/5 1463/2/5 1469/2/5
f 1471/2/5 1463/2/5 1470/2/5
f 1472/2/5 1463/2/5 1471/2/5
f 1473/2/5 1467/2/5 1466/2/5
f 1474/2/5 1467/2/5 1473/2/5
f 1475/2/5 1467/2/5 1474/2/5
f 1476/2/5 1467/2/5 1475/2/5
f 1477/2/5 1471/2/5 1470/2/5
f 1478/2/5 1471/2/5 1477/2/5
f 1479/2/5 1475/2/5 1474/2/5
f 1480/2/5 1475/2/5 1479/2/5
f 1489/2/5 1482/2/5 1481/2/5
f 1490/2/5 1482/2/5 1489/2/5
f 1493/2/5 1484/2/5 1483/2/5
f 1494/2/5 1484/2/5 1493/2/5
f 1495/2/5 1486/2/5 1485/2/5
f 1496/2/5 1486/2/5 1495/2/5
f 1499/2/5 1488/2/5 1487/2/5
f 1500/2/5 1488/2/5 1499/2/5
f 1501/2/5 1491/2/5 1490/2/5
f 1502/2/5 1491/2/5 1501/2/5
f 1503/2/5 1493/2/5 1492/2/5
f 1504/2/5 1493/2/5 1503/2/5
f 1505/2/5 1497/2/5 1496/2/5
f 1506/2/5 1497/2/5 1505/2/5
f 1507/2/5 1499/2/5 1498/2/5
f 1508/2/5 1499/2/5 1507/2/5
f 1509/4/5 1503/4/5 1502/4/5
f 1510/4/5 1503/4/5 1509/4/5
f 1511/4/5 1507/4/5 1506/4/5
f 1512/4/5 1507/4/5 1511/4/5
f 1521/3/5 1514/3/5 1513/3/5
f 1522/3/5 1514/3/5 1521/3/5
f 1523/3/5 1516/3/5 1515/3/5
f 1524/3/5 1516/3/5 1523/3/5
f 1525/3/5 1518/3/5 1517/3/5
f 1526/3/5 1518/3/5 1525/3/5
f 1527/3/5 1520/3/5 1519/3/5
f 1528/3/5 1520/3/5 1527/3/5
f 1537/2/5 1530/2/5 1529/2/5
f 1538/2/5 1530/2/5 1537/2/5
f 1541/2/5 1532/2/5 1531/2/5
f 1542/2/5 1532/2/5 1541/2/5
f 1543/2/5 1534/2/5 1533/2/5
f 1544/2/5 1534/2/5 1543/2/5
f 1547/2/5 1536/2/5 1535/2/5
f 1548/2/5 1536/2/5 1547/2/5
f 1549/4/5 1539/4/5 1538/4/5
f 1550/4/5 1539/4/5 1549/4/5
f 1551/4/5 1541/4/5 1540/4/5
f 1552/4/5 1541/4/5 1551/4/5
f 1553/4/5 1545/4/5 1544/4/5
f 1554/4/5 1545/4/5 1553/4/5
f 1555/4/5 1547/4/5 1546/4/5
f 1556/4/5 1547/4/5 1555/4/5
f 1561/2/5 1558/2/5 1557/2/5
f 1562/2/5 1558/2/5 1561/2/5
f 1563/2/5 1560/2/5 1559/2/5
f 1564/2/5 1560/2/5 1563/2/5
f 1568/2/5 1566/2/5 1565/2/5
f 1569/2/5 1566/2/5 1568/2/5
f 1572/2/5 1568/2/5 1567/2/5
f 1572/2/5 1570/2/5 1569/2/5
f 1572/2/5 1569/2/5 1568/2/5
f 1573/2/5 1570/2/5 1572/2/5
f 1575/2/5 1572/2/5 1571/2/5
f 1575/2/5 1574/2/5 1573/2/5
f 1575/2/5 1573/2/5 1572/2/5
f 1576/2/5 1574/2/5 1575/2/5
f 1577/2/5 1574/2/5 1576/2/5
f 1578/2/5 1574/2/5 1577/2/5
f 1579/2/5 1577/2/5 1576/2/5
f 1580/2/5 1577/2/5 1579/2/5
f 1581/2/5 1577/2/5 1580/2/5
f 1582/2/5 1577/2/5 1581/2/5
f 1583/2/5 1581/2/5 1580/2/5
f 1584/2/5 1581/2/5 1583/2/5
f 1585/2/5 1581/2/5 1584/2/5
f 1586/2/5 1581/2/5 1585/2/5
f 1587/2/5 1585/2/5 1584/2/5
f 1588/2/5 1585/2/5 1587/2/5
f 1594/2/5 1590/2/5 1589/2/5
f 1595/2/5 1590/2/5 1594/2/5
f 1596/2/5 1592/2/5 1591/2/5
f 1597/2/5 1592/2/5 1596/2/5
f 1599/2/5 1594/2/5 1593/2/5
f 1600/2/5 1594/2/5 1599/2/5
f 1601/2/5 1598/2/5 1597/2/5
f 1602/2/5 1598/2/5 1601/2/5
f 1607/2/5 1604/2/5 1603/2/5
f 1608/2/5 1604/2/5 1607/2/5
f 1611/2/5 1606/2/5 1605/2/5
f 1612/2/5 1606/2/5 1611/2/5
f 1613/2/5 1609/2/5 1608/2/5
f 1614/2/5 1609/2/5 1613/2/5
f 1617/2/5 1611/2/5 1610/2/5
f 1618/2/5 1611/2/5 1617/2/5
f 1619/2/5 1615/2/5 1614/2/5
f 1620/2/5 1615/2/5 1619/2/5
f 1623/2/5 1617/2/5 1616/2/5
f 1624/2/5 1617/2/5 1623/2/5
f 1625/4/5 1622/4/5 1621/4/5
f 1626/4/5 1622/4/5 1625/4/5
f 1631/3/5 1628/3/5 1627/3/5
f 1632/3/5 1628/3/5 1631/3/5
f 1633/3/5 1630/3/5 1629/3/5
f 1634/3/5 1630/3/5 1633/3/5
f 1639/3/5 1636/3/5 1635/3/5
f 1640/3/5 1636/3/5 1639/3/5
f 1643/2/5 1638/2/5 1637/2/5
f 1644/2/5 1638/2/5 1643/2/5
f 1645/2/5 1642/2/5 1641/2/5
f 1646/2/5 1642/2/5 1645/2/5
f 1651/2/5 1648/2/5 1647/2/5
f 1652/2/5 1648/2/5 1651/2/5
f 1655/2/5 1650/2/5 1649/2/5
f 1656/2/5 1650/2/5 1655/2/5
f 1657/2/5 1653/2/5 1652/2/5
f 1658/2/5 1653/2/5 1657/2/5
f 1663/2/5 1655/2/5 1654/2/5
f 1664/2/5 1655/2/5 1663/2/5
f 1665/4/5 1660/4/5 1659/4/5
f 1666/4/5 1660/4/5 1665/4/5
f 1667/4/5 1662/4/5 1661/4/5
f 1668/4/5 1662/4/5 1667/4/5
f 1673/2/5 1670/2/5 1669/2/5
f 1674/2/5 1670/2/5 1673/2/5
f 1679/2/5 1672/2/5 1671/2/5
f 1680/2/5 1672/2/5 1679/2/5
f 1681/4/5 1676/4/5 1675/4/5
f 1682/4/5 1676/4/5 1681/4/5
f 1683/4/5 1678/4/5 1677/4/5
f 1684/4/5 1678/4/5 1683/4/5
f 1691/4/5 1686/4/5 1685/4/5
f 1692/1/5 1687/1/5 1686/1/5
f 1692/4/5 1686/4/5 1691/4/5
f 1693/1/5 1687/1/5 1692/1/5
f 1694/1/5 1689/1/5 1688/1/5
f 1695/4/5 1690/4/5 1689/4/5
f 1695/1/5 1689/1/5 1694/1/5
f 1696/4/5 1690/4/5 1695/4/5
f 1702/4/5 1698/4/5 1697/4/5
f 1703/4/5 1700/4/5 1699/4/5
f 1705/4/5 1702/4/5 1701/4/5
f 1706/4/5 1698/4/5 1702/4/5
f 1706/4/5 1702/4/5 1705/4/5
f 1707/4/5 1704/4/5 1703/4/5
f 1707/4/5 1703/4/5 1699/4/5
f 1708/4/5 1704/4/5 1707/4/5
f 1709/4/5 1698/4/5 1706/4/5
f 1710/4/5 1698/4/5 1709/4/5
f 1711/4/5 1707/4/5 1699/4/5
f 1712/4/5 1707/4/5 1711/4/5
f 1717/4/5 1714/4/5 1713/4/5
f 1718/4/5 1714/4/5 1717/4/5
f 1719/4/5 1716/4/5 1715/4/5
f 1720/4/5 1716/4/5 1719/4/5
f 1725/4/5 1722/4/5 1721/4/5
f 1726/4/5 1722/4/5 1725/4/5
f 1727/4/5 1724/4/5 1723/4/5
f 1728/4/5 1724/4/5 1727/4/5
f 1733/4/5 1730/4/5 1729/4/5
f 1734/4/5 1730/4/5 1733/4/5
f 1735/4/5 1732/4/5 1731/4/5
f 1736/4/5 1732/4/5 1735/4/5
f 1741/4/5 1738/4/5 1737/4/5
f 1742/4/5 1738/4/5 1741/4/5
f 1743/4/5 1740/4/5 1739/4/5
f 1744/4/5 1740/4/5 1743/4/5
f 1750/4/5 1746/4/5 1745/4/5
f 1751/4/5 1746/4/5 1750/4/5
f 1752/4/5 1748/4/5 1747/4/5
f 1753/4/5 1748/4/5 1752/4/5
f 1755/1/5 1750/1/5 1749/1/5
f 1756/1/5 1750/1/5 1755/1/5
f 1759/1/5 1754/1/5 1753/1/5
f 1760/1/5 1754/1/5 1759/1/5
f 1761/4/5 1757/4/5 1756/4/5
f 1762/4/5 1757/4/5 1761/4/5
f 1763/4/5 1759/4/5 1758/4/5
f 1764/4/5 1759/4/5 1763/4/5
f 1767/3/5 1766/3/5 1765/3/5
f 1768/3/5 1766/3/5 1767/3/5
f 1769/3/6 1770/3/6 1773/3/6
f 1773/3/6 1770/3/6 1774/3/6
f 1771/3/6 1772/3/6 1775/3/6
f 1775/3/6 1772/3/6 1776/3/6
f 1777/2/6 1778/2/6 1781/2/6
f 1781/2/6 1778/2/6 1782/2/6
f 1779/2/6 1780/2/6 1783/2/6
f 1783/2/6 1780/2/6 1784/2/6
f 1785/3/6 1786/3/6 1793/3/6
f 1793/3/6 1786/3/6 1794/3/6
f 1787/3/6 1788/3/6 1795/3/6
f 1795/3/6 1788/3/6 1796/3/6
f 1789/3/6 1790/3/6 1797/3/6
f 1797/3/6 1790/3/6 1798/3/6
f 1791/3/6 1792/3/6 1799/3/6
f 1799/3/6 1792/3/6 1800/3/6
f 1801/2/6 1802/2/6 1809/2/6
f 1809/2/6 1802/2/6 1810/2/6
f 1803/2/6 1804/2/6 1813/2/6
f 1813/2/6 1804/2/6 1814/2/6
f 1805/2/6 1806/2/6 1815/2/6
f 1815/2/6 1806/2/6 1816/2/6
f 1807/2/6 1808/2/6 1819/2/6
f 1819/2/6 1808/2/6 1820/2/6
f 1810/4/6 1811/4/6 1821/4/6
f 1821/4/6 1811/4/6 1822/4/6
f 1812/4/6 1813/4/6 1823/4/6
f 1823/4/6 1813/4/6 1824/4/6
f 1816/4/6 1817/4/6 1825/4/6
f 1825/4/6 1817/4/6 1826/4/6
f 1818/4/6 1819/4/6 1827/4/6
f 1827/4/6 1819/4/6 1828/4/6
f 1829/2/6 1830/2/6 1837/2/6
f 1837/2/6 1830/2/6 1838/2/6
f 1831/2/6 1832/2/6 1841/2/6
f 1841/2/6 1832/2/6 1842/2/6
f 1833/2/6 1834/2/6 1843/2/6
f 1843/2/6 1834/2/6 1844/2/6
f 1835/2/6 1836/2/6 1847/2/6
f 1847/2/6 1836/2/6 1848/2/6
f 1838/2/6 1839/2/6 1849/2/6
f 1849/2/6 1839/2/6 1850/2/6
f 1840/2/6 1841/2/6 1851/2/6
f 1851/2/6 1841/2/6 1852/2/6
f 1844/2/6 1845/2/6 1853/2/6
f 1853/2/6 1845/2/6 1854/2/6
f 1846/2/6 1847/2/6 1855/2/6
f 1855/2/6 1847/2/6 1856/2/6
f 1850/4/6 1851/4/6 1857/4/6
f 1857/4/6 1851/4/6 1858/4/6
f 1854/4/6 1855/4/6 1859/4/6
f 1859/4/6 1855/4/6 1860/4/6
f 1861/3/6 1862/3/6 1869/3/6
f 1869/3/6 1862/3/6 1870/3/6
f 1863/3/6 1864/3/6 1873/3/6
f 1873/3/6 1864/3/6 1874/3/6
f 1865/3/6 1866/3/6 1875/3/6
f 1875/3/6 1866/3/6 1876/3/6
f 1867/3/6 1868/3/6 1879/3/6
f 1879/3/6 1868/3/6 1880/3/6
f 1870/2/6 1871/2/6 1881/2/6
f 1872/2/6 1873/2/6 1882/2/6
f 1876/2/6 1877/2/6 1883/2/6
f 1878/2/6 1879/2/6 1884/2/6
f 1881/2/6 1882/2/6 1885/2/6
f 1870/2/6 1881/2/6 1885/2/6
f 1882/2/6 1873/2/6 1886/2/6
f 1885/2/6 1882/2/6 1886/2/6
f 1883/2/6 1884/2/6 1887/2/6
f 1876/2/6 1883/2/6 1887/2/6
f 1884/2/6 1879/2/6 1888/2/6
f 1887/2/6 1884/2/6 1888/2/6
f 1870/2/6 1885/2/6 1889/2/6
f 1889/2/6 1885/2/6 1890/2/6
f 1890/2/6 1885/2/6 1891/2/6
f 1886/2/6 1873/2/6 1892/2/6
f 1892/2/6 1873/2/6 1893/2/6
f 1893/2/6 1873/2/6 1894/2/6
f 1876/2/6 1887/2/6 1895/2/6
f 1895/2/6 1887/2/6 1896/2/6
f 1896/2/6 1887/2/6 1897/2/6
f 1888/2/6 1879/2/6 1898/2/6
f 1898/2/6 1879/2/6 1899/2/6
f 1899/2/6 1879/2/6 1900/2/6
f 1890/2/6 1891/2/6 1901/2/6
f 1891/2/6 1892/2/6 1901/2/6
f 1892/2/6 1893/2/6 1901/2/6
f 1901/2/6 1893/2/6 1902/2/6
f 1902/2/6 1893/2/6 1903/2/6
f 1903/2/6 1893/2/6 1904/2/6
f 1896/2/6 1897/2/6 1905/2/6
f 1898/2/6 1899/2/6 1905/2/6
f 1897/2/6 1898/2/6 1905/2/6
f 1905/2/6 1899/2/6 1906/2/6
f 1906/2/6 1899/2/6 1907/2/6
f 1907/2/6 1899/2/6 1908/2/6
f 1902/2/6 1903/2/6 1909/2/6
f 1909/2/6 1903/2/6 1910/2/6
f 1906/2/6 1907/2/6 1911/2/6
f 1911/2/6 1907/2/6 1912/2/6
f 1913/3/6 1914/3/6 1917/3/6
f 1917/3/6 1914/3/6 1918/3/6
f 1918/3/6 1914/3/6 1919/3/6
f 1919/3/6 1914/3/6 1920/3/6
f 1915/3/6 1916/3/6 1921/3/6
f 1921/3/6 1916/3/6 1922/3/6
f 1922/3/6 1916/3/6 1923/3/6
f 1923/3/6 1916/3/6 1924/3/6
f 1918/3/6 1919/3/6 1925/3/6
f 1925/3/6 1919/3/6 1926/3/6
f 1926/3/6 1919/3/6 1927/3/6
f 1927/3/6 1919/3/6 1928/3/6
f 1922/3/6 1923/3/6 1929/3/6
f 1929/3/6 1923/3/6 1930/3/6
f 1930/3/6 1923/3/6 1931/3/6
f 1931/3/6 1923/3/6 1932/3/6
f 1926/3/6 1927/3/6 1933/3/6
f 1933/3/6 1927/3/6 1934/3/6
f 1930/3/6 1931/3/6 1935/3/6
f 1935/3/6 1931/3/6 1936/3/6
f 1937/3/6 1938/3/6 1939/3/6
f 1939/3/6 1938/3/6 1940/3/6
f 1941/4/6 1942/4/6 1947/4/6
f 1942/1/6 1943/1/6 1948/1/6
f 1947/4/6 1942/4/6 1948/4/6
f 1948/1/6 1943/1/6 1949/1/6
f 1944/1/6 1945/1/6 1950/1/6
f 1945/4/6 1946/4/6 1951/4/6
f 1950/1/6 1945/1/6 1951/1/6
f 1951/4/6 1946/4/6 1952/4/6
f 1953/4/6 1954/4/6 1958/4/6
f 1958/4/6 1954/4/6 1959/4/6
f 1955/4/6 1956/4/6 1960/4/6
f 1960/4/6 1956/4/6 1961/4/6
f 1957/1/6 1958/1/6 1963/1/6
f 1963/1/6 1958/1/6 1964/1/6
f 1961/1/6 1962/1/6 1967/1/6
f 1967/1/6 1962/1/6 1968/1/6
f 1964/4/6 1965/4/6 1969/4/6
f 1969/4/6 1965/4/6 1970/4/6
f 1966/4/6 1967/4/6 1971/4/6
f 1971/4/6 1967/4/6 1972/4/6
f 1973/4/6 1974/4/6 1977/4/6
f 1977/4/6 1974/4/6 1978/4/6
f 1975/4/6 1976/4/6 1979/4/6
f 1979/4/6 1976/4/6 1980/4/6
f 1981/4/6 1982/4/6 1985/4/6
f 1985/4/6 1982/4/6 1986/4/6
f 1983/4/6 1984/4/6 1987/4/6
f 1987/4/6 1984/4/6 1988/4/6
f 1989/4/6 1990/4/6 1993/4/6
f 1993/4/6 1990/4/6 1994/4/6
f 1991/4/6 1992/4/6 1995/4/6
f 1995/4/6 1992/4/6 1996/4/6
f 1997/4/6 1998/4/6 2002/4/6
f 1999/4/6 2000/4/6 2003/4/6
f 2001/4/6 2002/4/6 2005/4/6
f 2002/4/6 1998/4/6 2006/4/6
f 2005/4/6 2002/4/6 2006/4/6
f 2003/4/6 2004/4/6 2007/4/6
f 1999/4/6 2003/4/6 2007/4/6
f 2007/4/6 2004/4/6 2008/4/6
f 2006/4/6 1998/4/6 2009/4/6
f 2009/4/6 1998/4/6 2010/4/6
f 1999/4/6 2007/4/6 2011/4/6
f 2011/4/6 2007/4/6 2012/4/6
f 2013/4/6 2014/4/6 2017/4/6
f 2017/4/6 2014/4/6 2018/4/6
f 2015/4/6 2016/4/6 2019/4/6
f 2019/4/6 2016/4/6 2020/4/6
f 2021/2/6 2022/2/6 2025/2/6
f 2025/2/6 2022/2/6 2026/2/6
f 2023/2/6 2024/2/6 2031/2/6
f 2031/2/6 2024/2/6 2032/2/6
f 2027/4/6 2028/4/6 2033/4/6
f 2033/4/6 2028/4/6 2034/4/6
f 2029/4/6 2030/4/6 2035/4/6
f 2035/4/6 2030/4/6 2036/4/6
f 2037/3/6 2038/3/6 2041/3/6
f 2041/3/6 2038/3/6 2042/3/6
f 2039/2/6 2040/2/6 2045/2/6
f 2045/2/6 2040/2/6 2046/2/6
f 2043/2/6 2044/2/6 2047/2/6
f 2047/2/6 2044/2/6 2048/2/6
f 2049/2/6 2050/2/6 2053/2/6
f 2053/2/6 2050/2/6 2054/2/6
f 2051/2/6 2052/2/6 2057/2/6
f 2057/2/6 2052/2/6 2058/2/6
f 2054/2/6 2055/2/6 2059/2/6
f 2059/2/6 2055/2/6 2060/2/6
f 2056/2/6 2057/2/6 2065/2/6
f 2065/2/6 2057/2/6 2066/2/6
f 2061/4/6 2062/4/6 2067/4/6
f 2067/4/6 2062/4/6 2068/4/6
f 2063/4/6 2064/4/6 2069/4/6
f 2069/4/6 2064/4/6 2070/4/6
f 2071/2/6 2072/2/6 2076/2/6
f 2076/2/6 2072/2/6 2077/2/6
f 2073/2/6 2074/2/6 2078/2/6
f 2078/2/6 2074/2/6 2079/2/6
f 2075/2/6 2076/2/6 2081/2/6
f 2081/2/6 2076/2/6 2082/2/6
f 2079/2/6 2080/2/6 2083/2/6
f 2083/2/6 2080/2/6 2084/2/6
f 2085/2/6 2086/2/6 2089/2/6
f 2089/2/6 2086/2/6 2090/2/6
f 2087/2/6 2088/2/6 2093/2/6
f 2093/2/6 2088/2/6 2094/2/6
f 2090/2/6 2091/2/6 2095/2/6
f 2095/2/6 2091/2/6 2096/2/6
f 2092/2/6 2093/2/6 2099/2/6
f 2099/2/6 2093/2/6 2100/2/6
f 2096/2/6 2097/2/6 2101/2/6
f 2101/2/6 2097/2/6 2102/2/6
f 2098/2/6 2099/2/6 2105/2/6
f 2105/2/6 2099/2/6 2106/2/6
f 2103/4/6 2104/4/6 2107/4/6
f 2107/4/6 2104/4/6 2108/4/6
f 2109/2/6 2110/2/6 2112/2/6
f 2112/2/6 2110/2/6 2113/2/6
f 2111/2/6 2112/2/6 2116/2/6
f 2113/2/6 2114/2/6 2116/2/6
f 2112/2/6 2113/2/6 2116/2/6
f 2116/2/6 2114/2/6 2117/2/6
f 2115/2/6 2116/2/6 2119/2/6
f 2117/2/6 2118/2/6 2119/2/6
f 2116/2/6 2117/2/6 2119/2/6
f 2119/2/6 2118/2/6 2120/2/6
f 2120/2/6 2118/2/6 2121/2/6
f 2121/2/6 2118/2/6 2122/2/6
f 2120/2/6 2121/2/6 2123/2/6
f 2123/2/6 2121/2/6 2124/2/6
f 2124/2/6 2121/2/6 2125/2/6
f 2125/2/6 2121/2/6 2126/2/6
f 2124/2/6 2125/2/6 2127/2/6
f 2127/2/6 2125/2/6 2128/2/6
f 2128/2/6 2125/2/6 2129/2/6
f 2129/2/6 2125/2/6 2130/2/6
f 2128/2/6 2129/2/6 2131/2/6
f 2131/2/6 2129/2/6 2132/2/6
